/* XPM */
static char *c77a91c1addc4b0af18a0028a2611fc5Q9QnpHsrn9Xxny2p[] = {
/* columns rows colors chars-per-pixel */
"50 50 250 2 ",
"   c #040101",
".  c #0B0200",
"X  c #0C0B02",
"o  c #0A0909",
"O  c #130200",
"+  c #1A0100",
"@  c #130C02",
"#  c #1C0C01",
"$  c #120D0C",
"%  c #1B1302",
"&  c #181408",
"*  c #131314",
"=  c #1C1C1C",
"-  c #181717",
";  c #0F0E10",
":  c #240200",
">  c #2B0100",
",  c #260C01",
"<  c #380502",
"1  c #231402",
"2  c #251A00",
"3  c #2B1B01",
"4  c #281909",
"5  c #361804",
"6  c #231C13",
"7  c #261A18",
"8  c #3B1816",
"9  c #2C2300",
"0  c #26220E",
"q  c #322501",
"w  c #382806",
"e  c #272518",
"r  c #3C2414",
"t  c #382818",
"y  c #3A330B",
"u  c #1D1C22",
"i  c #221F24",
"p  c #1E2322",
"a  c #242425",
"s  c #2C2B2C",
"d  c #282728",
"f  c #342C27",
"g  c #3B332C",
"h  c #2B2A32",
"j  c #3C3B3C",
"k  c #383636",
"l  c #5C0200",
"z  c #471806",
"x  c #441617",
"c  c #4E1109",
"v  c #680801",
"b  c #6B130A",
"n  c #462804",
"m  c #552803",
"M  c #463804",
"N  c #553A07",
"B  c #462C19",
"V  c #4A3518",
"C  c #573417",
"Z  c #57291B",
"A  c #673B05",
"S  c #6E2917",
"D  c #443224",
"F  c #493728",
"G  c #573927",
"H  c #443B38",
"J  c #533F34",
"K  c #442429",
"L  c #6A342F",
"P  c #681B21",
"I  c #57471D",
"U  c #5A4D0E",
"Y  c #634703",
"T  c #694617",
"R  c #704F0E",
"E  c #7A6811",
"W  c #49442A",
"Q  c #58452A",
"!  c #47423A",
"~  c #584735",
"^  c #5A5132",
"/  c #675925",
"(  c #664B37",
")  c #69553C",
"_  c #744929",
"`  c #776830",
"'  c #3B3B42",
"]  c #413F41",
"[  c #3C4141",
"{  c #434343",
"}  c #4A4A4B",
"|  c #494847",
" . c #4C4C53",
".. c #565659",
"X. c #56514D",
"o. c #685747",
"O. c #755A48",
"+. c #72494D",
"@. c #78684A",
"#. c #7B6656",
"$. c #767249",
"%. c #685D67",
"&. c #696869",
"*. c #756E6A",
"=. c #6A6A72",
"-. c #77767B",
";. c #7B7666",
":. c #5F5E65",
">. c #881813",
",. c #95352B",
"<. c #91372E",
"1. c #AB352A",
"2. c #B43326",
"3. c #B3352B",
"4. c #B13B2F",
"5. c #A83933",
"6. c #B13E33",
"7. c #851C21",
"8. c #D3393B",
"9. c #8D6413",
"0. c #8D5034",
"q. c #AC4438",
"w. c #977A3A",
"e. c #8B6F2F",
"r. c #986E21",
"t. c #CF3D42",
"y. c #974844",
"u. c #89514C",
"i. c #A54846",
"p. c #AE4F50",
"a. c #826958",
"s. c #867A5B",
"d. c #8C7148",
"f. c #897466",
"g. c #967B6A",
"h. c #87796E",
"j. c #B46663",
"k. c #AC6259",
"l. c #CB4449",
"z. c #CB5050",
"x. c #C15C60",
"c. c #B08D38",
"v. c #A39037",
"b. c #CB9934",
"n. c #C6A638",
"m. c #D3AA37",
"M. c #D9B93A",
"N. c #D3B32E",
"B. c #E3C23D",
"V. c #96844B",
"C. c #948752",
"Z. c #AD9451",
"A. c #BAAA58",
"S. c #B8A54A",
"D. c #9A8868",
"F. c #968E74",
"G. c #A78C79",
"H. c #A4967A",
"J. c #AC9269",
"K. c #B2A374",
"L. c #C39956",
"P. c #C8AA47",
"I. c #D8B747",
"U. c #D5B753",
"Y. c #CDAB52",
"T. c #E3BD47",
"R. c #E2B950",
"E. c #D0B56E",
"W. c #E4B670",
"Q. c #DCC752",
"!. c #ECCD4C",
"~. c #E5CA47",
"^. c #E6D345",
"/. c #EAD346",
"(. c #E6D34A",
"). c #EAD34A",
"_. c #E9D94C",
"`. c #E7C958",
"'. c #F4CA5A",
"]. c #EBD353",
"[. c #EBD55C",
"{. c #E6D357",
"}. c #F1D254",
"|. c #F1D25C",
" X c #F1D04E",
".X c #DACA6A",
"XX c #DCCC75",
"oX c #DFD075",
"OX c #C8C06F",
"+X c #E7C964",
"@X c #F2CD67",
"#X c #E9D666",
"$X c #F4DA68",
"%X c #E8D774",
"&X c #F1D373",
"*X c #F7E174",
"=X c #7B7A83",
"-X c #817E87",
";X c #7E808C",
":X c #85848A",
">X c #979698",
",X c #8D8A8F",
"<X c #AA9586",
"1X c #B69986",
"2X c #B29186",
"3X c #BBA38B",
"4X c #B3A592",
"5X c #A8AAA6",
"6X c #AFB0B3",
"7X c #9E9EA0",
"8X c #DABB8C",
"9X c #C5AA97",
"0X c #CBB39B",
"qX c #D4B59D",
"wX c #D9B99F",
"eX c #D7B89D",
"rX c #C9BB84",
"tX c #C9B6A4",
"yX c #D4B5A1",
"uX c #D6B9A3",
"iX c #D9BAA3",
"pX c #DCBEA9",
"aX c #D5B9A7",
"sX c #EBBEAD",
"dX c #D09F85",
"fX c #D7C98F",
"gX c #E8D885",
"hX c #ECD58D",
"jX c #F3E198",
"kX c #DDC2AB",
"lX c #D4C2AC",
"zX c #DEC4B3",
"xX c #DBC8B7",
"cX c #E2C3AC",
"vX c #E2C6B2",
"bX c #E5CBB8",
"nX c #FEC0BC",
"mX c #E8D7AD",
"MX c #EDE1A5",
"NX c #BEBFC3",
"BX c #CABEC2",
"VX c #CED1D0",
"CX c #EBD6C6",
"ZX c #F7D4CE",
"AX c #FFE1DD",
"SX c #FBE9E8",
"DX c #FEFAF5",
"FX c #FEFBFD",
"GX c #F4F4F9",
"HX c #EDEFF3",
/* pixels */
"!.I.Y 1 z _ 0.m m U.m.~.)././.~.R m M.~.).]./.).)./.).)./.).~.n.5 r.!./.^./.M.m.n.5 S u.L 5 m.*XV.O ",
"!.|.+XE.Z.m < 9.U.'.}.!.).).^.].I.P.]._.!._.).^.).).).)./.!.!.`.P.`.}.).^._.).'.`.Y.R z A &X@X+Xw.+ ",
"I.T.'.|.#X@XR.R.}. X/./.).(.].!.]._.^.).(.(.).)./.).).).)./.).(.].].(.)./._.).!.}.|.'.@X@XR.P.b.0.< ",
"r.Y.T.~. X!.}.)././././.).(.).!./././._.(._.).^.~._.)./.)./.^.^.^.(.).).^.^._.).!././.~.B.N.W.A c k.",
": Y.T.M.~. X X X).^././.(._.).)./.)././.).).).).)./.^././.!.)./.).(.).].(.(.^./.).^.).B.N.[.r.5 c k.",
"+ Z.@X XM.M.!. X^.^./._.).(.).~.).).).).).)./.).)./././.)./.).^.).(.!.(.].).).)././.)._._.{.E Y A b ",
"L T c.'.|.M.M.B._.^.^.^.].(.^._.).^.).).).).~.).).)./.^.(.]._.).(.(.)./._.(.).!.^.^._.(._.!.$X*XL.A ",
"n : 9.I.M._.B.~.(._.(.).(.(.(.^./.).^././.).)./././.).)._.!.(.)._.(./././.(.).).).^.).).).).).`.@XW.",
"9.9.b.I.~.!.}.].!.).)./././.)._._.^.^.(.(.{.{.(./.^._._.^._.^.^._._.(._._.^.).(._.^.(.).!.).).`.c.z ",
"&XY.R.!. X).!.].].).)././././.(.{.{.#X{.[.{.{.{.].{.{.[.{.{.{.{._._.#X#X(.(.(._.^._.^.(.).)./.!.P.9.",
"Y.R.'. X!.).}.~.M. X).).^._.^._.#XA.w E.gX.X.XoXXX.X.X.XoX.X.XoX.XgXe.U #X(._.~.^.^.(.]./.).).}.'.'.",
"m b.m.M.{.`.I.n.m.N.!.).(._.[.%Xe.% . 3 9 9 w 9 q q q q 9 q q 9 9 9 X 9 #X(.(.].(.[.Q.`.[.].).M.N.m.",
"b.b.T.].`.S.5 R R.!.).(.(.#XOXy @ e d 0 7 e e 6 - 0 6 = 0 0 e 0 0 0 @ 9 #X^.).!.`.Y.M U Y.`.!.).~.m.",
"T.R.@X.Xw., O w.$X!.~.[..XZ.9   & d * - - ; * u a = u ; j *   p d *   9 %X].).`.S., 9 1 q U.`.{.].`.",
"b.@XL.T X . w.U. X~.$X.X` & ;.s >XHX=.;X . .=X.. ...:.=XNX..p :XFX-.o y A..X|.Q.w.O f & 9 oX#Xc.c.$X",
"R.w.n O   . c.`.|.#XA.y 0 F.=Xh >XGX=.-...|  .u d u h ..[ :.=X;XFX=.s t O A.gXv.    s 4 9 %XjXY M hX",
"@.X . . X y P.$X.XV.% & } =X=Xd >XHX=.;X} a h ;X..=.=Xu HXNX:.=XFX&.s t . E.A.Q 0   s 2 9 gXC.M n d.",
"  @ O   % fX*XA.U . e = ' ;X=Xs ,XGX=.:.; d ,X .' ' :.=XHX6X=X-XFX=.p y U fXI @ :X  d 0 w fX1 O % O ",
"& d $ . 9 fXC.y X X = =X;X .-.s >XHX=. .s p h   u ; o :.GXNX:.=XFX&.o y MX` W ! k * k & 2 MXq X e a ",
"s s X   % MX9 X s - o =.-.d :Xh 7XGX=X,X..k } 7X>X>X6XVXNX>X=X=XDX-.o 0 MX% & k * [ - W $./ X o u * ",
"* $   y V.U e e s d p     & d o k ..d h - - [ &.=.=.=.&.i i h h ..s   & ^ t - i [ [   $.lX  6 a p p ",
". . X ) cX. X X & s s d d e 0 e p * p i p i = ; * * ; - i u u i - 6 e e & D H H g # O 2 y   X % & @ ",
"f.# . 1 w X 4 &   X @ $ % @ % % X - ! j j k [ [ [ { j j j j ' k & @ @ % % % : > > + L x % J.Z.w 5 g.",
"K.: / K.D.. + 4 t t f   y 4XF.3X^ o     X X X   X . X X X . . o   f.K.H.H.@ B +.u.y.P > n hXfXY z W.",
"Q + e.fXrXX 3 f t f & @ # 4 2 D.rXd.@ % . O t B B D B 8 4 2 % 3 H.9Xa.% 4 @ $ K a.p.p.b 5 fXE.Y 5 R ",
"J.5 + / E.  y 5 O - &.&.H % . 9 3 q K.3X^ # 3 9XqXwX<X+ 3 @.K.D.& w % . 0 } =.&.8 < i.S 5 hX5 T L.L.",
"L.A + ^ 8XO w 1 & &.HX*.W F.y C.o.& @   @.o.O tXyXbX<X+ D.Q # % % C.` M H.e 7XlX+.8 L c q MX1 , 9.L.",
"E.A : F s.. B 1   X >XDXlXW K.^ 4XVX  . 3 t F tXaX9Xh.f t r # O DX;.$.H.W SX5Xf + ] G , 3 J.w : R W.",
"r.0.C , .   r V F g   ..5XF.  ;.5XF.g D G.sXiXqXbX( + zXkXD.~ J ,X4X~ . 4X7Xf O J 8 9Xf.. . 5 T 0.e.",
"c 0.w.G O O 5 g.bXlXo.k g g ! ! g o.bXlXpXiXwXyXkXg.o.pXqXlXzXaXJ g ! ! H H H *.CXtXxX#.. # ) d._ l ",
"l.v _ d._ + 5 g.vXqXkXzXCXZXCXbXzXzXqXqXiXyXeXuXyXkXvXqXeXeXwXyXkXbXCXZXCXVXcXpXyXqXCXO.O e.d.S b q.",
"t.x.< N fX_ 5 G G.wXkXbX1XG ( 1XiXwXeXuXiXiXuXwXuXqXwXiXeXeXeXeXqXaXD.G ( 0XbXpXqXiXf.( 0.8X> v p.3.",
"l.z.z + R 8Xw O ( bX( F ( #.O.9XiXeXiXiXeXiXwXeXeXwXeXeXwXwXwXwXqXpXG.O.@.~ D a.bXvX4 Q 8XC S ,.1.3.",
"p.l d.J.d.N O % G F #.a.G.bXzXzXkXqXiXuXqXiXwXcXpXpXcXpXwXiXqXiXiXiXzXbXzXg.*.o.F sXD % n : ,.1.1.2.",
"z J.0.C C O V./ X 5 tXbXvXaXxXJ a.cXqXaXyXaX9XB ( ( B ) 9XiXqXwXiX( #.zXqXvXCXtXf.F X . O + ,.2.3.2.",
"+ z L L G . E.` . G 9XpXg.4 t a.3XkXiXuXyXpX9X8 8 5 Z K.qXwXiXiXlX<Xo.r r 1XtXaXtX. s.` O L <.1.,.1.",
"u.u.k.k.+.> S.%XV.. Q t ( 1XG.pXaX9XiXyXpXpXaXyX9X9XqXvXiXaXiXyX9XzXyX2X2Xr D.F.0 A.gXe.+ u.u.i.q.y.",
"SXAXSX2X> 8X`.%XA.1 . o.tXzXbXtXO.G iXpX9X3X3X3X3XdX9X3X1XqXcX9Xr g.aXbXpXaX~   9 gX*Xe.3 SXAXSXAXAX",
"GXGXSXD.n E.+X#XXXZ.n q O.9X4XD O.aXyXzXO.< B t t t r r 5 a.9XqXyXG o.4XaX0XI U fXA.%XE 4 FXDXDXDXDX",
"FXDXf.o.J.O S.Q.v.n fXQ O r + <XvXaXtXaXaX9XG.<X<X<X<XG.pXo.( sXiXaXa.H >X# d.jX.X@ S.e.4 FXDXDXDXDX",
"nXnXZX2X< : OXR % MXD.w . & 0 D.9X0XaXyXpX2X_ ( ) ( ( ) 9XpXaXyXyXxXtX;.@   I J.U.U e.U , ZXnXsXnXnX",
"l.6.p.y.L G V.` U C.O X f j . O f.CXpXuXwXwXwXsXsXpXsXaXaXyXaXbXbX<XD   | e . N jXgXn + z <.<.,.<.<.",
"t.t.z.7.< a.# e.E.+ . h } ] . O F f.#.aXbXsXqXwXqXqXyXyXzXCX4X#.f.4   X | X.6 3 w.hXB z y.q.i.6.1.1.",
"t.t.l.5.b c S L _ G . - d u . g t O : o.) g.bXcXcXcXbXxX#.o.~ + + D e X - = o # m 0.> x 0.b l <.q.q.",
"t.t.t.x.x.j.L < : Z .   o u   $ t G F 1 # t o.X.o.o.X.o.1 # 5 F F t     i e O : Z < x L x < , x c x ",
"z.z.7.v v l b P S Z O = ' ] h . . % # 4 6 X .         . & 1 & 1 1   o k ] X.7 : L L P x 7 H H f 7 7 ",
"v v >.>.>.>.5.6.6.5.+ f } ' } $ * f f   - g d   p =X,X  d f -   d f k | ] i . x x.k.< , ~ K k k H k ",
"P P 5.6.6.4.3.3.3.,.> . a | { o u } |   d  .[ o p 6XVX  [  .s o | { { [ ] o o 8 p.v z B G F D D g g ",
"6.4.3.3.3.2.2.2.2.5.:   * { { o = | ]   d | '   7X6X[   k | s   [ { { j ] ;   8 u.< x G C C C G C G ",
"2.2.2.2.2.2.2.2.3.5.:     ; { ; = | {   d | j   VX6Xp   k } a o [ ! { k o     O > Z C C C A C C C C "
};
