/* XPM */
static char *_2c757a63e5c4b80b2a35ba95cf64943yrOJdU72QMkeo7uD[] = {
/* columns rows colors chars-per-pixel */
"50 50 243 2 ",
"   c #030105",
".  c #0B0302",
"X  c #04020B",
"o  c #0A030B",
"O  c #04090C",
"+  c #0B0A0D",
"@  c #0A0A02",
"#  c #120101",
"$  c #130C0C",
"%  c #180805",
"&  c #050412",
"*  c #0A0513",
"=  c #060A15",
"-  c #0B0B15",
";  c #060C1B",
":  c #0C0C1C",
">  c #07071B",
",  c #120B15",
"<  c #110D1C",
"1  c #140813",
"2  c #0D111C",
"3  c #0A1217",
"4  c #13121C",
"5  c #19141C",
"6  c #181416",
"7  c #260601",
"8  c #2A1700",
"9  c #241A18",
"0  c #2D160B",
"q  c #3C2900",
"w  c #342B1A",
"e  c #070D21",
"r  c #0C0D21",
"t  c #0B0521",
"y  c #120D22",
"u  c #100D28",
"i  c #0C1223",
"p  c #061122",
"a  c #131422",
"s  c #1B1524",
"d  c #1B1B23",
"f  c #261D27",
"g  c #292329",
"h  c #2B2B34",
"j  c #332D34",
"k  c #3A3638",
"l  c #38322F",
"z  c #401505",
"x  c #53170C",
"c  c #78161C",
"v  c #631308",
"b  c #4B3405",
"n  c #5E3304",
"m  c #512A0D",
"M  c #652D09",
"N  c #433C3C",
"B  c #453B3A",
"V  c #52332A",
"C  c #683F2B",
"Z  c #5C4415",
"A  c #74540E",
"S  c #47423C",
"D  c #784B29",
"F  c #6A4D29",
"G  c #7D6529",
"H  c #383840",
"J  c #423D45",
"K  c #3C4041",
"L  c #4A4447",
"P  c #534C4C",
"I  c #534B47",
"U  c #534C51",
"Y  c #5A5558",
"T  c #4D4E50",
"R  c #645D5C",
"E  c #645855",
"W  c #7D5F4A",
"Q  c #6D685E",
"!  c #5F5A60",
"~  c #645B65",
"^  c #6C6667",
"/  c #746A68",
"(  c #78726E",
")  c #736D73",
"_  c #7D7676",
"`  c #6D6A71",
"'  c #9C1901",
"]  c #801D18",
"[  c #A71D01",
"{  c #B11F08",
"}  c #892B01",
"|  c #972602",
" . c #983100",
".. c #85251B",
"X. c #A82409",
"o. c #AB2F0A",
"O. c #831A21",
"+. c #8D3431",
"@. c #9A4800",
"#. c #8F4B0C",
"$. c #A45402",
"%. c #B35B00",
"&. c #AB410E",
"*. c #946417",
"=. c #A37916",
"-. c #AD6300",
";. c #895330",
":. c #A95433",
">. c #8B6A36",
",. c #997434",
"<. c #8A702B",
"1. c #A47B28",
"2. c #B0753A",
"3. c #C96B28",
"4. c #D06A1F",
"5. c #90774A",
"6. c #827163",
"7. c #837B7A",
"8. c #907562",
"9. c #A36051",
"0. c #CF7B4B",
"q. c #B28929",
"w. c #B1841F",
"e. c #ED921C",
"r. c #F3BA1A",
"t. c #EEBC1D",
"y. c #DB992A",
"u. c #D29232",
"i. c #E58728",
"p. c #E79B2A",
"a. c #ED9B38",
"s. c #F69D3E",
"d. c #EA8538",
"f. c #DBA83D",
"g. c #D7AF33",
"h. c #F6AD29",
"j. c #EDBA27",
"k. c #F5BC22",
"l. c #F5B829",
"z. c #E4AA3A",
"x. c #F7A438",
"c. c #E8B638",
"v. c #FEBE3B",
"b. c #F8BA35",
"n. c #F1C21C",
"m. c #F6C329",
"M. c #EDC63D",
"N. c #FDC33C",
"B. c #F7C637",
"V. c #EFC229",
"C. c #B79152",
"Z. c #89827D",
"A. c #AF9879",
"S. c #CE8D4B",
"D. c #EA9946",
"F. c #F89D45",
"G. c #E28C53",
"H. c #E19250",
"J. c #D9AA48",
"K. c #D5B444",
"L. c #CFAE4F",
"P. c #E4B84C",
"I. c #F8BB47",
"U. c #EAAA4D",
"Y. c #E1B067",
"T. c #F9CA44",
"R. c #F7C647",
"E. c #EEC751",
"W. c #F7C655",
"Q. c #F7CF4B",
"!. c #F0C866",
"~. c #867D83",
"^. c #8B8686",
"/. c #948B8B",
"(. c #958A8A",
"). c #9A928E",
"_. c #958D91",
"`. c #9A9495",
"'. c #8D8A91",
"]. c #A59B99",
"[. c #A08D93",
"{. c #A9A29A",
"}. c #B8A799",
"|. c #9C98A1",
" X c #A69FA1",
".X c #ABA5A4",
"XX c #B4ACA6",
"oX c #B4AEAA",
"OX c #B5AAA7",
"+X c #B8B1A6",
"@X c #B5B2AC",
"#X c #BAB1AC",
"$X c #B4ADB3",
"%X c #BDB5B3",
"&X c #BEB9B3",
"*X c #BDBBBA",
"=X c #B7B2B6",
"-X c #AFB0AA",
";X c #CCB185",
":X c #C2B8AD",
">X c #C2B6B2",
",X c #C1B9B4",
"<X c #C4BBB9",
"1X c #C7BBB8",
"2X c #CDC2BB",
"3X c #C8C4BB",
"4X c #D5C6B3",
"5X c #E2C9AB",
"6X c #CDC7C4",
"7X c #D6CBC7",
"8X c #DCD2CD",
"9X c #D6D2C7",
"0X c #DCD4D2",
"qX c #DBD5D6",
"wX c #DACFD3",
"eX c #E4D8CE",
"rX c #E4DCD4",
"tX c #E6DAD8",
"yX c #F0DEDA",
"uX c #FCE7C9",
"iX c #EAE2D5",
"pX c #ECE3DB",
"aX c #E9E7D8",
"sX c #F3E5DC",
"dX c #F4EADD",
"fX c #FBECDE",
"gX c #F4E5D8",
"hX c #FBF1DC",
"jX c #ECE5E2",
"kX c #F4EBE3",
"lX c #FBEDE3",
"zX c #FBEEEA",
"xX c #F4E8E6",
"cX c #FDF4E5",
"vX c #FEF9E6",
"bX c #FEF5EB",
"nX c #FFF9ED",
"mX c #F5F4E8",
"MX c #F4EBF2",
"NX c #FDF5F2",
"BX c #FFFAF2",
"VX c #FFFBFB",
"CX c #F9F5F3",
/* pixels */
"dXfXnXnXbXvXnXnXnXcXvXmXmXnXbXbXbXnXnXbXbXvXvXvXbXbXNXnXnXbXnXbXNXBXbXvXvXvXcXnXmXnXnXbXvXvXbXnXlXsX",
"cXrX#X#XOX#X+X#X+XoX=X@X-X-X#X#XoXoX@X@X@X@X@X@XoX+XoXoX#X#X#XoXoX=X+X+X+X+X@X@X@X%XoX&X+X@X#XOX8XcX",
"bX,X    o o     * * X X = *   o X X X & X X X X X X X & X X X X X X X X X X X &   o         =   #XbX",
"bX&XX a s J `.~ & : y 2 i i : < < y r r r r 2 : 2 2 : r r r < : : r : 2 r r r r 2 = h /._ h = * OXbX",
"BX*XX = h $XCXCXoXX - 2 - < r : : : < t r t : < - - - : : - : 2 : : - 2 : r r r & T aXvXaX) s X oXnX",
"CX%X, - h $XmXjXmXY   3 - : r e < - : : : y < < 4 - 2 : : : ; - : - - - : y t : y *XvXuXaX^ a & oXbX",
"vX>XX & - |.mXyXbXZ.  4 $ - ; p ; < : 3 : : : : : : : : y < < : 2 ; ; : : < < 1 f jXdXaXaXT O . +XbX",
"cX2Xg L T `.kXsXnX(   4 + , 3 p r ; : , $ @ @ @ . @ @ @ % $ , < < ; : : : : 1 o 9 eXaXdX9X/ P l >XbX",
"cX2XZ.lXaXpXkXgXzX$X1 * 3 ; ; i p 2 @ @ % 8 8 b <.<.A 8 8 8 @ @ 1 y : - 3 ; y X E fXsXsXkXpXxX6X7XfX",
"bX1XOXbXaXdXdXgXyXNX=XJ O = 2 + @ . b G q.Y.L.P.E.P.E.K.P.C.G G 8   $ , = & s ~.gXgXjXsXpXlXxXpX8XfX",
"hX3X/ jXaXkXvXhXcXpXNXMXT @ $ % b 1.K.E.M.g.m.l.j.l.l.l.b.M.R.P.L.A 8 @ + d @XVXlXxXzXNXmXsXaX+X2XvX",
"hX3Xk ` _ R _ {.3XpXsXzXrXQ % ,.U.R.k.t.r.n.m.r.l.k.j.l.k.k.t.k.M.E.L.q w @XnXaXyXtX1X^.( ( Z.Y :XvX",
"vX#XX a s ,   3 L {.MX7X[.V *.W.b.k.k.k.k.m.b.N.N.T.N.N.l.m.m.n.t.j.M.L.n 6.:XkXtX` h &   4 d & XXbX",
"mX3XX : y : 4 - O h 7.).V D J.b.b.m.v.v.x.a.x.%.%.%.%.i.x.p.h.B.N.v.l.c.C.b 6.].! a & ; 4 ; e & oXvX",
"nX%X* y r ; 3 = ; : * V M S.a.x.F.F.4.o.[ X.X.{ { { X.X.[ X.o.4.d.F.F.D.U.*.m g * ; i 3 : - : X oXBX",
"vX,Xo y e e < < p ; < 7 S.G.:.o.}  .| | | ' ' [ [ [ [ [ ' | X.'  .} X.3.3.Y.C . ; p - = 2 - 4   oXnX",
"bX:X. : r u t r ; ; : 9 9.+.c ] } }  .$.@.-.z.p.y.p.p.p.y.$.$.$.} } ..O.O.9.C 1 : a , , < : :   oXnX",
"lX%X+ 3 > t y : 3 , . 7 z v +.:.S.u.D.W.R.R.M.T.Q.M.Q.T.B.T.W.R.a.U.2.:.c c 0 . o , 1 s : ; 4 O oXvX",
"nX&XO 3 : : 4 + O @ b A u.u.I.v.N.N.T.v.R.W.U.J.J.J.f.f.R.B.B.B.B.N.N.Q.z.f.1.Z 8 % : : > a r & oXnX",
"mX*XO ; - $ % % q <.L.R.c.c.m.B.b.g.g.u.=.=.,.,.,.,.,.1.=.w.q.K.g.j.B.m.m.B.I.!.C.Z % . 6 ; u & oXnX",
"nX*X= 2 1 # 7 <.J.I.b.l.l.N.J.=.,.>.>.C.;X;XuXhXuXuXuXuX5X;X;X5.>.,.q.J.N.V.V.j.T.E.f.b # % i & oXnX",
"VX=X= - 7 +.3.U.b.h.h.b.c.=.Z 5.5XnXhXbXlXmXdXgXfXgXcXgXdXlXmXnXNXuX;X2.w.c.B.k.r.k.v.z.2.m . X oXnX",
"zX1XO $ ;.G.d.4.e.e.x.u.n F 5XfXNXeX.X2XbXzXkXsXdXgXsXgXzXbXjXOX1XzXlXuXA.A *.I.h.e.e.i.p.S.V   oXnX",
"bX1XX $ ;.G.d.d.4.i.d.#.W .XyXCX`.h . 9 P ].aXdXdXkXgXfX6X/ k   1 ~ tXnX2XA.A u.p.p.e.s.D.C.m   OXnX",
"bX>X= - 7 m :.0.H.H.H.;.8.:XzX`.o X - -     XXmXpXdXdXkXk   * < < X N pXeX}.>.S.U.U.H.0.;.0 o . oXnX",
"lX1X& > : # 7 z v M M F 8.1XtX9 X ; i = a X S kXjXsXcX{.- < : r p 3 O Z.xX}.W D n n n 7 # 6 y X oXnX",
"vX:Xo < 4 , 1 1 % . . 6 7.6X/.X a i e t : - o 3XbXiXvXP . : > : ; 3 = h tXOXE # . o # $ 5 1 <   XXnX",
"bX,Xo < = ; e ; p p 2 X P wX`.  ; e t r : <   ( cXdX7X6 + < : e ; 3   k yX].f 1 i i ; : u u < X oXnX",
"bX%X+ < a ; ; 4 ; p 3 k S 6X'.  4 3 ; r y :   L mXmX@X  - X a ; ; - - j jX7.L h X < < : e ; i   oXnX",
"VX*XX : : ; 2 - > a ^ ).l _ _.O + 3 - : > < o ].cXdXrXl + 4 : ; > <   H 6Xk 7.OXL - , 4 i p 3 = XXnX",
"bX%Xo 4 > ; p = 4 ^ _./.) L %X~.  = : y u * 6 6XkXpXBXR   - ; a y o j 6X(.E ]..X].S o * r y :   oXnX",
"zX1X  : a : * d ~ ).8X3X'.Y ) MX7.  X X X f ].NXNXmXzXtXP 1   X * g tX6XU ]..XpX:X).N s : < 4 . XXnX",
"NX>XX < - X k 7.>XjXkXbX^.d d |.MX.X/./.).eXNXpX^.R ,XbXmXOX(.).(.tXtXU 6 P 8XnXkX8X>X/ 5 o * . OXbX",
"zX2Xf j h L / 8XzXkXiX/ 2 = > s `.xXBXBXdXdXlXOX    S lXsXcXbXbXNXwXY X ,   L @XmXdXsX>XQ I U B <XcX",
"bX6X'.=X%XoX0XkXzXjXB   - : y * f _ %XtXmXpXnXoX  . I mXrXdXsX8X.X! o s : 3 X $ XXNXsXsX1X1X2X1XeXlX",
"fXxXNXVXmXmXkXkXeXJ o 6 , : : < - , N 7.6XlXmXCX.X/.tXbXbXyXOX/ f 1 * < > : < - , ].bXkXlXkXbXkXfXfX",
"gXyX_.).6XdXnX{.1   a - ; 3 ; 2 ; X ! .XI 7.OX].,X<X{..X].E 7. X1 > < : e ; r : 1 . E sXlXfX}.}.eXcX",
"vX1X$ R rXdXaXk . s : r > 2 2 = a & k VX( 7.(.~.J I (.7.{.R tX=X. < : 2 e u ; e y * . .XbXkX+XS :XbX",
"lX:X. -XmXmX6X3 < > r a ; 2 3 = ; a L R R <XNXVX^.(.BXNXkX_ _ P k * 2 ; e ; i ; : <   ) zXjXbXS {.BX",
"bX>X# ^.aXCX`   < < e e r ; ; 3 p u  XN / 7.I ^ B J Q E I ].l ).~ X 2 e > i e p < : : f wXMXwXB {.nX",
"bX>X  h T K 4 * < t t : e ; : : ; ; k K _.xX8XyX/ / aX8XrX0XU U 5 < : : 2 ; ; ; ; 4 : - j ~ ~ , oXnX",
"bX,XX 2 2 = * < < t : ; ; r : < a & T .XU P ( oXE R 3XZ.R B _.'.5 : : : i ; 3 2 = 2 2 - * : d   XXnX",
"nX&X* : 2 ; : : > > : : : : - : ; = a  XwX9X X/ 7./ / Z.7XwX6X~ > t : : ; : ; : i ; = - : - : X OXnX",
"mX%XX p ; ; ; : y r : : : : : < 2 4 - d ) .XqXMXNXmXCXjX*X'.U * > y y : : : : : * 3 ; 2 i : : + oXnX",
"nX<X& ; ; ; ; < : : ; 3 : ; : - 2 & : + 4 g T _ '.'.^.Y k 5 4 < < r r : : < : : 4 ; : ; : - -   XXnX",
"vX*XX ; i 3 = ; : ; ; ; > ; , : 2 ; 4 4 - & X s d d d - X : a : : : : : : < : : : : : ; : ; 2 X XXnX",
"cX<X* : 3 ; ; < : r ; 3 ; ; : ; ; i : - : 4 i : ; - 2 2 : < r r 3 3 ; : < : : r r r i : r i i   XXnX",
"bX%X  +   X + X X X X X X X +   X - X X = X * * X 3   X o & * & O   O o   X o o * & * * X X X   XXbX",
"lXeX1X:X%X%X,X&X,X,X,X,X,X%X,X%X,X,X,X,X,X,X,X,X,X,X,X,X,X%X,X,X>X&X,X,X,X,X,X&X,X,X,X,X,X%X>X>XiXdX",
"lXlXlXbXnXcXbXbXbXbXnXbXbXnXbXnXnXnXbXbXbXbXbXNXbXnXbXbXnXnXbXbXbXbXbXnXbXbXbXbXbXbXbXbXbXnXbXbXfXfX"
};
