/* XPM */
static char *_bada80bb8754f09a14ac7c90616c23fWq7CUAOZU5IQYfrS[] = {
/* columns rows colors chars-per-pixel */
"50 50 62 1 ",
"  c #342D23",
". c #3C352B",
"X c #3F382E",
"o c #3E3A32",
"O c #443D33",
"+ c #443F39",
"@ c #464036",
"# c #484137",
"$ c #46423B",
"% c #4B453B",
"& c #4E483E",
"* c #50493F",
"= c #4B4640",
"- c #4E4A41",
"; c #504742",
": c #534D43",
"> c #544F49",
", c #575045",
"< c #585147",
"1 c #565149",
"2 c #5B544A",
"3 c #5F584E",
"4 c #5F5850",
"5 c #605A4F",
"6 c #635C53",
"7 c #676056",
"8 c #686157",
"9 c #676159",
"0 c #6C655B",
"q c #6F685D",
"w c #706A5F",
"e c #6F6661",
"r c #6F6B61",
"t c #706762",
"y c #746D63",
"u c #777065",
"i c #787267",
"p c #767269",
"a c #7C756A",
"s c #7F786D",
"d c #7F7B70",
"f c #807A6E",
"g c #837D72",
"h c #878075",
"j c #888276",
"k c #878378",
"l c #8B857A",
"z c #8F887E",
"x c #908A7F",
"c c #8F8B80",
"v c #938D82",
"b c #979085",
"n c #989287",
"m c #9C958A",
"M c #9F988D",
"N c #A09A8E",
"B c #A49D92",
"V c #A7A195",
"C c #A9A297",
"Z c #ACA59A",
"A c #B0AA9F",
"S c #B4ADA3",
/* pixels */
"#ssu0yty76;6gxfffggffbbvgvz2Offfhjhfiiiqwifhfiiw,&",
"2ggspfaif036gg7f608fgBMnvvvffBvvNNVNNNnhhhcnNNNc8,",
"2lggggfa776<g07606efgBgvggzefmffffffifiwwwwwihffi&",
"<lvlggaaff8*fff0f7efgbggggg7glfghhfiifffhiiiiiiii&",
"6vzvggfff84+ftfe28fffgggffg2fgfgffiiiiiiiwwqqwiii@",
"pnllccgfff7+tfteffgffgggfff;gzxgiiiiiiiiwwwqqqwid,",
"evvvvvgggnf2tgff88e;;867646;fgvgiiiiiiwwwwwwqwiwr,",
":gBBnbgcgx0+:87e06ffgggbvvle6gvgiiwiwiiiiwwwwiiir@",
";tt66468eyt:zbvbvxlxbvzvvbBg7flgwwwwiiiiiwqqiiwqr&",
"6gzgffffe88+gvgzgxnvvllvbzvf4flgffffiwwiwiiiffiwr@",
"4ggffffffw0+ggggflllxnnvbgvf;flgffiffiwiiiiwwiiwr,",
"4ggfffffffe2gvvgvnlgvbnvmvmg4flghffffiiifffiiiiir&",
"+0e00568534<ffgvglvvxvvBmmmf;fffhffhffiiwififiiwr,",
"O680066e3253680fgglmBnmmbnnf4fgffiiiiiiifiiiwiiwr@",
"6xbbbgbvxgvggbggffe4fff4eef;;;;4,,,55,55qq5,,,,,,@",
"2gggfff8fffggggvfff24ffggggfff24cjjjjhhhhccNnnjf5-",
";gffffff4ffefffffffflglggglvbBbeccjhcccnnNVVVNVVh#",
";fefff6ffefffefeffe6f7ffffffgxg;ifhfhjjjcNNNNVAAz5",
";gfef67ffefffeffff6ef4fffffgglf4wsfffhfhjnncnNVVz5",
"6lffffffeffeffffff44e777fffgggf4qfhffffhjcncxbnxh*",
"6ff6f8f8ffeffffffff;4f4ffgggllf;5sfssifhjNnccbjhq#",
"efefffeffffffff4ff47f8fffgggllf45ihsiifhjcbcjbxhf@",
".;;;X;;;24;246;;;;;48f77fffflg625shfsiifjcjjjnxhq*",
"X2fgfffffffffgf76426f4fffgglvgf4,ihhfffhjcnjcnxhq&",
"6f66ff4ffffffffflg46eeefftxllbe;55fijhjnxxxxxxxx8,",
";ff4226<88effeffgg46e6ffgfllmme;,&,&,,5,5qq5w55,,@",
";4f2f6f26ffff8f8ff4ff6efftgvBv4;fiw,,,558us8ussy8*",
";f4f664f4fefefef6f;ffffffflvBv76hhjiwixnxVxxxxxxjq",
"Of6ff4f66ffe8f7fef;fggggllglBmf;hhhiuiVxxjhihiisjq",
";4f66fffffeffefe6f2flllzmBblvlf;jfiiusxjzhihjhhjhq",
";f8ff48ff6eff6ef7e;glxxxvBBmff;4s88wuqxzjjhshaahhw",
"#4f8fff6f7fefff7ff2gxxxlllmBg644hiwhw5xhhhsihhhhhy",
"#ff4fffffeff66f66f+gvf2;7;522;;<<;22*:ggggffffffxq",
"Offfggffffffffffff;;76ff2<6262;O;276*%gggf5fffgfj8",
"#482;<2;;<;;<;#;+4f6e;;;ggBBABg;77ff5<gfgffffhgjh5",
". #;2246;4f6ffggvmmf82;fBggfgvMffff6<<gfffffhjjjh5",
"OO8gmmbvmbbzggggffgzff4vbgvgMmb6f676;;fffiifhhjjh,",
"X;fgffffffffffggvzflef2vBgggmgn777ff3;fffiffhhjjj5",
"#2fffgggfgffffffggfgef2gMngggvB8f3f75#ffffihhhjxj8",
".;ffggggffffffffgggff84fvgvvngM4f:;f7;ffhhhhhhjzj5",
" ;eglllgfgffftgfggvftf<4vzvgvvv6wqwq,8Njsffssffjh5",
".;eglgglglglgfgflglxle2fmvvlbvb8w8ww55njssffsfhhh5",
"O;egllllllggfffglvgbve46f644eeeO88ww55bjffiffffhh5",
"O;egvggllzlzllzvzmbvvf2;ffffffl6qqwi5,bjhffifffhh,",
".;4gzllzglzzlvvmMvmggf;7ftffllvtqwqw5,bxhhffiffjh,",
".;egvvxvzzvllvvvMmmf7t<effffllve5iqw5,xjfhfiiihjh,",
".;4flvmvmmmzvZBBMBz;2f44feffjfg4*wwi8,bjhfhffhhjh5",
".;2etlvzllzgzSSZZme4fffeffffjff>Xwii8,jhfhfhhhhhj8",
"O;;;;;;4efe4efteee99gt94fffgtfgt5555,*hhiiiiiiiiu5",
"X.;X+;;;;4;+;;;;;;;+4;OO>469;>e>55,,,*w5,,*,,,,,8,"
};
