/* XPM */
static char *_5463548cbc643b2ef2f584100539d56vGHLZMsHdj8pg88e[] = {
/* columns rows colors chars-per-pixel */
"50 50 118 2 ",
"   c #6E3300",
".  c #6F3400",
"X  c #703400",
"o  c #703500",
"O  c #723500",
"+  c #743700",
"@  c #753701",
"#  c #753702",
"$  c #753802",
"%  c #783800",
"&  c #7B3A00",
"*  c #7F3C00",
"=  c #7E3D03",
"-  c #7A3B04",
";  c #803C01",
":  c #823D01",
">  c #873F01",
",  c #803F06",
"<  c #874001",
"1  c #834107",
"2  c #884001",
"3  c #8C4201",
"4  c #8F4301",
"5  c #8B4304",
"6  c #844208",
"7  c #874309",
"8  c #8B460A",
"9  c #924501",
"0  c #974801",
"q  c #984801",
"w  c #9B4901",
"e  c #9C4A01",
"r  c #904A0C",
"t  c #964E0F",
"y  c #9A4D0A",
"u  c #984D0C",
"i  c #9A500F",
"p  c #9A5010",
"a  c #9D5311",
"s  c #9F5412",
"d  c #A04C02",
"f  c #A34D02",
"g  c #A64E01",
"h  c #A44D02",
"j  c #A64F02",
"k  c #A85002",
"l  c #AF5201",
"z  c #AC5202",
"x  c #AE5302",
"c  c #AF5302",
"v  c #AA5307",
"b  c #A2530E",
"n  c #A6540C",
"m  c #AC5509",
"M  c #B05302",
"N  c #B15401",
"B  c #B05402",
"V  c #B25402",
"C  c #B35503",
"Z  c #B55806",
"A  c #B95B09",
"S  c #BA5C09",
"D  c #BB5C09",
"F  c #BB5D0B",
"G  c #BC5E0B",
"H  c #BD5F0C",
"J  c #A55714",
"K  c #AA5B16",
"L  c #AF5E18",
"P  c #BF610D",
"I  c #BD600E",
"U  c #BB6317",
"Y  c #BD6517",
"T  c #B4611A",
"R  c #B9651B",
"E  c #BA661C",
"W  c #BC671C",
"Q  c #C0610E",
"!  c #C36410",
"~  c #C36511",
"^  c #C46511",
"/  c #C46512",
"(  c #C56613",
")  c #C66713",
"_  c #C76814",
"`  c #C86813",
"'  c #C46C1F",
"]  c #CC6C18",
"[  c #CF6F1B",
"{  c #C86D1D",
"}  c #D06F1A",
"|  c #D1711C",
" . c #D3731D",
".. c #C86E20",
"X. c #C96F21",
"o. c #CA7022",
"O. c #CB7022",
"+. c #CF7322",
"@. c #CF7423",
"#. c #D07423",
"$. c #D07524",
"%. c #D97822",
"&. c #DA7822",
"*. c #D87925",
"=. c #DB7B27",
"-. c #DD7B25",
";. c #DB7C27",
":. c #DE7D27",
">. c #DE7E28",
",. c #E17F28",
"<. c #E17F29",
"1. c #E3812A",
"2. c #E5822A",
"3. c #E4822B",
"4. c #E5832B",
"5. c #E6832B",
"6. c #E7832B",
"7. c #E7842B",
/* pixels */
"2.2.2.2.2.2.2.2.2.2.2.2.2.2.2.2.2.2.2.2.3.3.2.2.2.2.1.,.r # # W 6.3.3.2.2.2.3.3.3.3.2.2.3.3.$., * # ",
"1.1.1.1.1.1.1.1.1.2.1.1.1.1.1.2.1.1.1.1.,.3.2.2.3.,.,.>.8   O W 3.,.2.2.3.,.3.3.,.3.,.2.1.1.$.-   O ",
"1.1.1.1.1.1.,.1.1.,.,.2.,.1.1.,.1.1.1.1.,.3.,.2.3.,.3.>.8   O E 3.2.2.,.3.,.2.,.3.,.3.3.1.1.X.&   O ",
"1.1.1.) I Q I I Q I Q Q I Q I ) ! ! ! ~ ! ~ ~ ) ! ! ) ! , X O E 3.2.] ) ) ! ! ! ) ! ! ! ! ) F * O O ",
"1.1.,.G M N M M c M M M M M c N c M N c M M N c c N c c : O O E 3.3.) M N c c c M M M M M N j # O O ",
"1.2.,.F M M N N N C N N N N M C M M C c N M C c M c M c ; O O E 3.3.) M N N N Z M M M C M C k % . . ",
"1.1.,.H N c N N M c N c N N c c M N c N N N C M N c M c : X O E 3.,._ c N N N c M M C N N C k # O O ",
"1.1.,.H c N N N c C C C N N C C N N C N N N C c c N M c * X O E 2.2._ N c N N C M M M M N C k # # . ",
"1.1.,.F M N N N C C C c N c C c c C c C c C c C N N c c : . O E 1.1._ M N N c c N c C N M c j $ . O ",
"1.1.,.G c N N N c N c M N C N N N c N C N C N N N N c c = O O E 2.1._ c c N C N C c C N N c c $ O . ",
"1.1.,.G c c N N N N C N c c N N N C c N c C c N C c C c * O O E 2.2.) c N N N N N c N N N N j O . O ",
"1.1.,.G C C c C c C c N C C c C N c C N N c C c N N C c * . O W 7.2.) c c N C C C C C N N N c $ + O ",
"1.1.,.G M M N c C C c c C N N c C N c C c N C N c N M c : . O s E R n 0 0 0 0 w w w 0 0 0 w 9 O . O ",
"1.1.,.G M N c N c c C C c N N C C c N c C N C c N N N c = O . O O O O O O O O O O O O O O O . O + . ",
"1.1.,.G M N N N C c C c C c C c c C N C c N C N c N N M = . . . . . . . . . . . . . . . . . . O . + ",
"1.1.,.G M N N N N N N N N N C c N C N c C c c N N d e e t t t t t t t t t t t t t t t t t t r $ O . ",
",.2.,.H c N c N c N c c c c c N c N N C N N N C c = O # X.1.,.,.1.1.1.,.3.,.2.1.1.,.3.,.1.2.+.- . + ",
"2.2.,.F M N C N C N C C C C C N C c N c N N N C c & X # X.2.3.3.2.2.1.3.3.3.3.2.1.3.3.3.2.2.#.- . . ",
"1.1.,.H M N c C N N c C N N c C c C C C C M N M k =   # X.3.3.-.-.&.*.*.*.%.&.*.&.&.*.%.&.&.' * . + ",
"1.1.,.H M N M c C c N N C c N N N c N c M N M M c &   # X.1.1.) C C C C N A M C C M A N C C v # . . ",
"1.1.,.F M N N C C C N N c C C C N C c N C C c N c =   # X.3.2.~ M N N C c c c N N N c N c N j # + . ",
"1.1.,.H M N N C c c C c N N c c N c C N c c k k d 1 7 7 { -.*.! c N N N C C C N C N Z c N N k # . O ",
"1.1.,.F M N c N c c N N c C c c C N c N C k = # * X.=.*.~ C C C c C c N N N c C c C c c N N v $ O . ",
"1.1.,.H c N C N C C C c N N C C C c C c c k $ . - #.3.,.H c N M c C C N C c N N c c C N C C k # . + ",
"1.1.,.F M N N N c C N C N N c C N c N c N j O O - #.1.,.H M M M c C N C C c c C N N N N M N k $ + . ",
"1.1.,.H M M N N c C N c C c N N C N C N N k $ . - #.2.,.H c M M N N N c C c c C C M C N N M k $ . O ",
"1.1.,.F c N N c c C c N C C N C c N M c C k $ O - #.2.,.H M M N c C c N N C N C M N N N N C j $ + . ",
"1.1.,.F C C c N N N C N c c N c C C c c c j & $ , +.,.>.G M N N c C C N N c N c C N N N M N j & . O ",
"1.1.,.G c N N N c C C C N N N M c N k : * 5 ..o.{ U H F C N N N c C N C c N c N c C c M N N m $ O . ",
"1.1.,.F c M N N N N c c C M C c N C d $   7 *.1.,.A c c N N c C c C N c C N C N N C C c N N j O . + ",
"1.1.,.H M M C c c C c M c N C C N N j O   7 *.2.,.A N C C C N N c C c N C c c C c N N N N N k $ + . ",
"u t t 5 > > j C N N C c C C N N N C e # O 1 -.2.:.D N M c N c C N N C N C c c C C N C c N N k $ . O ",
"O O . . O O w c N c N c Z c N N c C j O O 1 ;.1.>.F c c N N C C C c C c N C C c C c N N C C k $ . O ",
"O O O .   O w M c N c N N c C N C N j # . 1 =.1.>.F c M c C c N c N N N c C c N N N c C c C k $ + . ",
"T T T T T T y 2 3 2 2 2 e N C c N N e $ O 7 =.1.:.F N N N c N c N c C c N N N c C C C c M C j # . O ",
"3.3.3.3.2.2.p   O O O . 5 C c N N N j O   7 =.1.:.F c N c C C C c C C N c C c C c N c N N M k # + . ",
"2.1.2.1.1.3.p   . . .   3 N C N N C j $ . 6 ;.3.:.F M N N N N N C c N N C c N C N N N N N N k # . O ",
"1.1.,.| ] ] T J K L L T b 3 9 9 9 3 < O . 1 ;.1.:.F c N N N c C N N c C C N c C C M C N N C k & + . ",
"1.1.1.F c N | 7.2.2.3.7.T   . O . . . O . 7 ;.1.:.S c N c N C N C C C c C c C N M N N N M N j # . O ",
"1.1.,.H M N | 3.3.3.2.3.T   .   . . . O . 6 ;.1.,.A N N N c c N c N c N c N c N C N N N M M k # + . ",
"1.2.,.G M C ) } [ [ | ] Y s s s s p t $ O 7 ;.1.>.A C N N c c c C c N c C N C N M N c C N N v # . O ",
"1.2.,.G M c c N N N C c _ 2.1.,.1.1.o.$ . 1 ;.1.1.F N N N C N C N N C M M N M N C N M c N C k # + . ",
"1.1.,.F M M C c N C c N _ 3.1.2.7.7.o.* . 6 *.7.>.A c c C c N C N c C c N N C M c C c C M C j # O O ",
"1.1.,.H M N N N N c c c ~ | | | | | Y $ . 1 ;.1.,.A c C C N N N C C C N c C N N N N N C M M k # O . ",
"1.2.,.F N N N N N N N M c C M M N C j $   7 *.2.:.F c c c N c N c M N N N N N M N N M M M C k # . O ",
"2.2.,.H M M N N N C N M M N N N N N e $   1 >.2.,.F M M N N N C N C C C M M N C C M C C C C k % $ . ",
"o.o.X.m d j k e j j j d d j j f e k w O . = ' X.' v j d d j k e j d j d d j j d j d d d d e q # O O ",
"& # # # # O # # O # O # # O # # $ $ O O O O # * # # # # $ O $ + # # O # # O # # # # # O # O O O . . ",
"O O O O O O . O O . O O O . . O O . . O O . O O . . O . O . . O O O O O X O O   . O O . O O . . O O ",
"$ O O O O # O O O $ $ O + + + O + + + O + O + + + O + + + + + O O O # O # O O # $ O # O $ O $ O $ O "
};
