/* XPM */
static char *_6b2e33665c749208a939f77ff91bc9a6hCsWf54h3DARy9m[] = {
/* columns rows colors chars-per-pixel */
"10 10 41 1 ",
"  c #A07550",
". c #C78C57",
"X c #C68B56",
"o c #AE7D52",
"O c #AD7D52",
"+ c #FFAE61",
"@ c #FFAF62",
"# c #DB985A",
"$ c #DA975A",
"% c #9F754F",
"& c #B98354",
"* c #C48A56",
"= c #B68253",
"- c #B58253",
"; c #C08855",
": c #F7A860",
"> c #BF8755",
", c #ECA25E",
"< c #F8A960",
"1 c #DA985A",
"2 c #AF7E52",
"3 c #D29359",
"4 c #D9975A",
"5 c #D8965A",
"6 c #BE8755",
"7 c #F9A960",
"8 c #F9AA60",
"9 c #D49359",
"0 c #D39359",
"q c #FDAC61",
"w c #C58B56",
"e c #9F744F",
"r c #AC7C52",
"t c #C18855",
"y c #BC8655",
"u c #DC985B",
"i c #B78354",
"p c #F5A75F",
"a c #C68C57",
"s c #A07650",
"d c white",
/* pixels */
" .X.oO.X. ",
"X++@#$@++X",
"%.&*=-*&.%",
";:>,<<,>:;",
"O12344321O",
"O#5#>6#5#O",
";7<8908<qw",
"eXrtyytOui",
"X+wp++pw+a",
"sa%>aa>%a "
};
