/* XPM */
static char *_11c975c2ac24af5ed96c724a6b2f07agDlIsbV9glausmq3[] = {
/* columns rows colors chars-per-pixel */
"50 50 220 2 ",
"   c #050101",
".  c #0E0B07",
"X  c #0E0A08",
"o  c #070505",
"O  c #120E0B",
"+  c #16120F",
"@  c #1C1A0D",
"#  c #1E1B17",
"$  c #1B1A1B",
"%  c #181517",
"&  c #0C0516",
"*  c #211D19",
"=  c #1E2116",
"-  c #24221D",
";  c #2B291A",
":  c #1E1C22",
">  c #1A1827",
",  c #211C2E",
"<  c #201B21",
"1  c #241B36",
"2  c #232224",
"3  c #292621",
"4  c #2D2A26",
"5  c #232229",
"6  c #29252E",
"7  c #2B2B2C",
"8  c #312C29",
"9  c #322E22",
"0  c #2E302E",
"q  c #35322D",
"w  c #39352E",
"e  c #3C3A2E",
"r  c #363428",
"t  c #252430",
"y  c #2D2B33",
"u  c #282636",
"i  c #322D36",
"p  c #322C3C",
"a  c #2D313D",
"s  c #353433",
"d  c #393632",
"f  c #3D3A35",
"g  c #34313C",
"h  c #3E3B3A",
"j  c #383639",
"k  c #423F34",
"l  c #423E3A",
"z  c #3E4039",
"x  c #464336",
"c  c #46433D",
"v  c #49433B",
"b  c #4C4A3D",
"n  c #2A2E44",
"m  c #2F3144",
"M  c #35394E",
"N  c #3C3B4D",
"B  c #373747",
"V  c #3B3E53",
"C  c #3C3E5B",
"Z  c #363856",
"A  c #302E4B",
"S  c #3C3E66",
"D  c #433E41",
"F  c #413D4D",
"G  c #433E54",
"H  c #423E63",
"J  c #3D414F",
"K  c #3D4256",
"L  c #3D425C",
"P  c #3E4163",
"I  c #464243",
"U  c #494642",
"Y  c #4C4945",
"T  c #45424A",
"R  c #4A454A",
"E  c #4D4A4B",
"W  c #474A43",
"Q  c #514C44",
"!  c #524D4A",
"~  c #54514D",
"^  c #5B574D",
"/  c #434454",
"(  c #4D4B54",
")  c #44455B",
"_  c #454A5D",
"`  c #4C4D5C",
"'  c #474658",
"]  c #524D51",
"[  c #514F5A",
"{  c #4F525C",
"}  c #555352",
"|  c #595552",
" . c #5D5A56",
".. c #5D5C5A",
"X. c #57515B",
"o. c #625D59",
"O. c #615C56",
"+. c #605E4F",
"@. c #5E615A",
"#. c #64625D",
"$. c #6D6A5F",
"%. c #414463",
"&. c #474C62",
"*. c #4B4C64",
"=. c #42466A",
"-. c #46496A",
";. c #4A4C6C",
":. c #4A4667",
">. c #524E66",
",. c #4E5363",
"<. c #4C506C",
"1. c #525564",
"2. c #52546C",
"3. c #555A6B",
"4. c #5A5D6D",
"5. c #5A5967",
"6. c #424572",
"7. c #494C78",
"8. c #4D5174",
"9. c #4F527B",
"0. c #565A73",
"q. c #5B5B71",
"w. c #555879",
"e. c #504F79",
"r. c #615D6C",
"t. c #5B6076",
"y. c #696661",
"u. c #6C6A65",
"i. c #65646D",
"p. c #6D6B6A",
"a. c #646467",
"s. c #726E6A",
"d. c #726E63",
"f. c #75726D",
"g. c #767365",
"h. c #646370",
"j. c #6B6A74",
"k. c #63647B",
"l. c #6C6C7B",
"z. c #676978",
"x. c #706E79",
"c. c #797572",
"v. c #7C7B75",
"b. c #74737A",
"n. c #7B7A7A",
"m. c #757577",
"M. c #6D7278",
"N. c #817D7A",
"B. c #85827D",
"V. c #87897C",
"C. c #5C5E84",
"Z. c #636682",
"A. c #6B6987",
"S. c #737483",
"D. c #7C7A85",
"F. c #777988",
"G. c #706E86",
"H. c #817E88",
"J. c #8E8A87",
"K. c #8C8B8C",
"L. c #868485",
"P. c #928E8B",
"I. c #94918E",
"U. c #989C8E",
"Y. c #838592",
"T. c #8C8A93",
"R. c #8A8996",
"E. c #908D9A",
"W. c #8F9098",
"Q. c #9D9996",
"!. c #979598",
"~. c #A09C99",
"^. c #A3A09B",
"/. c #9C9BA4",
"(. c #9E9DA9",
"). c #9896A4",
"_. c #8F91A0",
"`. c #9FA1AE",
"'. c #A4A2A2",
"]. c #A4A3AE",
"[. c #ACA9A7",
"{. c #B2AEAA",
"}. c #B4B0AD",
"|. c #A8A8B6",
" X c #B6B4B2",
".X c #BFBCBA",
"XX c #B9B6B7",
"oX c #C3BFBC",
"OX c #C4C2BE",
"+X c #BBBAC2",
"@X c #BABAC8",
"#X c #AAADC0",
"$X c #C9C6C6",
"%X c #D2CECB",
"&X c #D5D1CE",
"*X c #D9DDCE",
"=X c #CBCBD4",
"-X c #CDCDDA",
";X c #C6C5D3",
":X c #D1CEDA",
">X c #DDD9D6",
",X c #D9D6D8",
"<X c #E1DDDA",
"1X c #DEE0D5",
"2X c #E3E6DD",
"3X c #D9D9E6",
"4X c #E0DDE6",
"5X c #DFE1F0",
"6X c #EBE9EA",
"7X c #E8E6E6",
"8X c #F1EDEC",
"9X c #F4F0ED",
"0X c #EAE8F5",
"qX c #FAF6F3",
"wX c #FDFAF6",
"eX c #F5F2FE",
"rX c #FFFEFB",
"tX c #FEFDFD",
"yX c #F8F6F8",
"uX c #F0F0F9",
/* pixels */
"x x x v x c c c l l I l Y Y f Y c c c l c c c c c c v c c c c c c E v d Y Y z c c c v c c c c c I c ",
"v x v v v c c c v U c q f U c c c U c c v c c c U U U U U U U W l b c c ~ c d Y W U U U U c c l c c ",
"I c I c c I c c c W W v c Y Y c l l l h l h l l l l l l l v l l ! f Y E q U  .f c c U W U c c l c U ",
"T T I T I c c c x v v Y l w v c v W v U W v U U U W W U v U U Y Y f h U c c f 3 l c l v c c c U c c ",
"D T T I I c v c Q c w U < X j Y c c c c c c c c c c c v c c c c d v w c y.4   - Y U c l l c c U c c ",
"T T I U c v x x U x l | 6 o p p T c v c c I c c U U U v U U c U Y U  .c * Q O.O ~ Y U c l c c c c c ",
"I I U c x x x x f v l X.p > G 1 R U W v U W U v W Y W U Y W Y W ! f ^ f - {.OX  c c c c c c c c c U ",
"c c x x x x x x v Q i 1 & 1 A.V $ * * * # # * * * * * * * # * * - - . 8 .XrXQ.  8 q f c c c c c c c ",
"U x c x x x v x e W # o { { 1.&.n n m a g s s e e r x 9 r - r z f 4 U '.rXrXs.l + + U l Y l l l c I ",
"I J J c c x x v Q ^ 7 : i.4.0.3.Z.Z.z.l.i.p.y.$.g.d.g.$.V.$.#.#.o.B.&XrX&XL.k J.s.O ] l d Q l D c c ",
"c J x x x x x x x z $ > 3.K K L L L K J N s s d 9 ^ +.9 z z z z ~ OXrX8Xc.w  .7X[.  ] l 8 | l l c c ",
"z W z c b x x c c c 2 t z.L L P P -.2.,.` R U U w d.g.r x c W z L.rX&Xf.4  .oX6XN.  Q D l | l l c c ",
"W c z z b x x c Y R t m S.:.-.9.P P &._ T J l c x ^ #.z Q z s 7 [.9Xd.| N.&XtX%Xq O U U ! U l D c c ",
"W z b c c x c c c I , u Z.%.P e.P -.P _ ' T U I Y b #.W z s a.K. .L.} oXwXyX<XI.8 * U l ! l l ! c U ",
"J c c z x z b c U ( u u k.:.;.9.9.-.L _ ' ( R U v ~ g.z q p.$XOX3 #.{.tXtX%Xy.s.s.* U l l D l ! c c ",
"x z z b x b x c h T 5 > 8.S S 6.w.;.L K ' ( R I l +.f.4 ! :XtXv.4 L.tX<X~.{.s.<X{.o ! l d ! k D c c ",
"x x v I U F D U I U 5 5 C.C.C.S L _ _ K K K *.3.G ' h.[ ,XtX| ~ d.~.qXo.D OXqXwX .O l l l Y U l c I ",
"z x c I D R D I c R 5 , C.S 6.7.V ,.J B 3.1.B V 3.@XH.'.eX..} %X{.c.| l <XqX<X~.N.* I I U l D Y c c ",
"x z I D R F I D l U 5 5 e.S 6.C.L ,.M J k.&.n 0.@XtX|.x.H.y ,XtX$X+ s.<XyX$X~.&XJ.* l U Q l l ! c c ",
"z W U U D U I v c R 3 , q.C P 6.<.K J L ,.M k.;XtXtX;XB M.3XyXL.'.~ {.9XN.~.{.qXd.+ l I D l D Q c c ",
"b x b J T I I I b c - 6 l.*.=.=.-.M ,.2.n 0.-XtX0X(.H.F /.tXi.R 7X<Xl I.J.oXyX>XD O I D l U U D U c ",
"z J z c D T l c c x = 0 F.0.8.8.<.P Z.8.m |.tX5XD.>.E.H.l.D.r.:X8XI.! $XwX9XqX[.d O | U l Y U l c c ",
"c z W W I I U c x x - 0 M.,.-.8.8.9.Z.<.L #X5XR.h.E.eX@XG.E.3XeXH.f oXwXtX<XP.O.l + ! Y l U U l I c ",
"z c c J I T I I b b = 4 i.M C ;.-.P -.L K F.Y.K =XtXeX5.|.eX0XR.!.o.N.qX8XN.O  . .X l U l l U ! c c ",
"W b k v v v v v W W : u j.T ' ) -.C.Z -.A.n _ 5XeX(.XXD.h.].).@XtXXXN.qXo.l oXP.Y + Y D U I l U c c ",
"v c v v v v v v I Y : y l.) *.>.P S P t.L t.3XeXY.(.:X3X, x.=X0X8Xs.o. XN.%XtXP.U + U l I U l I c c ",
"c v v v x c v c c W : y b./ >.*.w.Z P 8.K |.uXF.=XtX3Xn.r.+X0X0XJ.y.~ }.qXtX{.! U + Y l v I l Y c c ",
"v c v v v v c c c E : y z.F ' ) ;.9.P P M k.@X-X0XE.+Xi.).tX0Xn.%X&XL.8XtX~.c. .I + Y l U c l U U c ",
"v l v v v v x c c R : y j.F ' ) L -.%.0.&.m Y.yXT.R.0X$Xr.Q.E.$XwX{.o.!.^ l H.O.Y + Y l I c l U c c ",
"v v v v x c c c z W 2 a l.G ` 2.-.P C *.3.S.`.Y.+XtX7XD.p.T.+X0X!.d.u.~.I.7X{.O.I + Y l U I l U U c ",
"v v v v x c c c h Y < p x.F ` 2.-.0.<.V n S.-X;XuX`.K.s !.tXtX..] N.N.7XqXwXs.] U + U D I c l U c c ",
"v v v v c x c c c E 5 i j.B ' &.<.P Z t.{ a F.tXK.I.XXj.b.{.b.T.<X$Xc.wX!.O.w s.U + Q l U I l U c c ",
"v c I c c c c c c Y - w u.f ~ R 3.L J P t.F.`.W.-XyXtXb.u.B. XrX9Xu.#.I.^. . .~ Q   | c d ~ c c U c ",
"c c c c I c c c c U + 4 d.h W R J P P L K M.@X|.`./.M.0 /.tXyXK.f.y.v.XXrXI.q #.! o ~ v f Q c c v c ",
"c c v I c c v c c Y # 4 f.f l ! 1.0.L J J F.|.S.W |.-Xa.i.L.K.I.u.B.rXrXc.- d #.Q o ! Y c c h c c c ",
"I c c c c c U c c E 4 q s.s s } J L ,.L K Z.W.t.@X`.;X].L.E.7XtXs.#.Q.g.f l W  .Y . b W U v l W c c ",
"v v c c c I I c c v 3 4 s.v d U { J J ,.{ z.Y.t.|.].b.T.tX7XT.s.u.V.P.y.~ Y f u.v + v c U l l U c I ",
"c U c U c c c c ~ h - 3 u.o.! B 3.L K K J 4.`.`.).4XT.{ -X;XT.b.L.tXrXJ.w q c c.h - W c W l v U c c ",
"c I c v c c U c Y f x 4 c !  .Y 5 K 3._ M z.3XyXz.J b.].XXeXtXi.v.rXs.* #.B.Q ! w 4 Y h U l c c c c ",
"c c c c c c c c h d  .4 + - Y E M.{ a J M.@X3XW.`.|.:XtXeX|.H.6 J.s.f N.Y q c   7 w Y d c c U c U c ",
"c c U c c U c c x h l Y Y w - % l O.o.* c.wX*XU.2XtX0X|.G.H H >.I o.| k 9 @ ; +.x x x c U I I I c c ",
"I c c c c c c c c c h v c c h c % % N.oX6X1XV.v.c oX!.6 G r.G H r.] 3 + w l e x v x x U c I I c I v ",
"c c c c c c c U c U c h c Y Y ! 8 < $X8Xd.u.v.~ 4 | X.j X.j.>.p F R g i T ! I I c c c v c I c I c c ",
"c c c c I c c c c c W v c Y l 4 G :X4XG $ 7 3 Y c.#.p.c.X.D 6 < , F G p p D R Y c c x c c c c c c I ",
"c c c c c c I c c U c c Y W q O i !.N.+ D D X 8 4 f.#.q 8 3 * ] A p , & & i R l c c c v c c c c c c ",
"c U c c c c c c W c l l U U q * * . < D l ! D k . 3 4 # 3 l ] ] G j 1 < * j Y k v c c v c I c I c c ",
"c U I c U c c I Y v f l c v l l l ^ Q D ! l l D O.* 8 ! l Q ~ * D l Q ~ x c b x x c v v c I I I c c ",
"c c v c c v c c c f c Y c l c ~ ! 9 k Q k l O.D D R D D R D l } ! k k b e x b z x x v c c c I I I c ",
"c c c c c c c c c c c c c c c c c c c c c c c c v c U c c c c c D l I c v c c c c c c v v U v c c c ",
"I c c c c U c c c U I c c c c U c I c c U c I c c c c c c I c c l U v U c I c c I v c I c c I c c U "
};
