/* XPM */
static char *fa451f4d109d462ce8cc0bf1b1bc6cb2EclQz9VQgShzXzJO[] = {
/* columns rows colors chars-per-pixel */
"50 50 254 2 ",
"   c #020103",
".  c #0A0102",
"X  c #03020A",
"o  c #0A020B",
"O  c #080909",
"+  c #130001",
"@  c #1A0000",
"#  c #140808",
"$  c #080613",
"%  c #160B14",
"&  c #1A1017",
"*  c #240101",
"=  c #2A0604",
"-  c #340100",
";  c #3A0718",
":  c #361918",
">  c #2B1210",
",  c #3A221C",
"<  c #120F2E",
"1  c #2A132E",
"2  c #34292E",
"3  c #1A213E",
"4  c #480206",
"5  c #590207",
"6  c #4A1608",
"7  c #521214",
"8  c #670219",
"9  c #720B14",
"0  c #532616",
"q  c #762519",
"w  c #682418",
"e  c #540B2C",
"r  c #71102D",
"t  c #533D3A",
"y  c #4E2E2D",
"u  c #662A25",
"i  c #782928",
"p  c #7A3426",
"a  c #703637",
"s  c #6D4634",
"d  c #01024D",
"f  c #030545",
"g  c #020353",
"h  c #040659",
"j  c #021557",
"k  c #0F1D4D",
"l  c #3C1B46",
"z  c #122E56",
"x  c #2F3059",
"c  c #001763",
"v  c #000860",
"b  c #043468",
"n  c #05387B",
"m  c #072E70",
"M  c #591843",
"N  c #721047",
"B  c #51324E",
"V  c #633762",
"C  c #12436F",
"Z  c #52484F",
"A  c #724F50",
"S  c #73566A",
"D  c #756C72",
"F  c #53496F",
"G  c #9A0319",
"H  c #890A1A",
"J  c #AD011E",
"K  c #8E2E1A",
"L  c #A4381F",
"P  c #98082C",
"I  c #991229",
"U  c #8E0E32",
"Y  c #A90428",
"T  c #BB032C",
"R  c #B5042A",
"E  c #B90732",
"W  c #B6133A",
"Q  c #AA0C34",
"!  c #87372A",
"~  c #993728",
"^  c #983935",
"/  c #8C312F",
"(  c #A83A2C",
")  c #A83B35",
"_  c #B43B35",
"`  c #AC292F",
"'  c #C5042E",
"]  c #C40233",
"[  c #CC0335",
"{  c #C80937",
"}  c #D4033A",
"|  c #DB023C",
" . c #D60639",
".. c #CB1130",
"X. c #E2063E",
"o. c #894738",
"O. c #9B453B",
"+. c #90462B",
"@. c #A64927",
"#. c #A64738",
"$. c #A55437",
"%. c #B85937",
"&. c #B34D2F",
"*. c #B9623E",
"=. c #C45C35",
"-. c #CD642B",
";. c #C86335",
":. c #D46A36",
">. c #D06B33",
",. c #8F1A46",
"<. c #B71842",
"1. c #8E2F48",
"2. c #AD3949",
"3. c #8E3E65",
"4. c #D90841",
"5. c #CF1446",
"6. c #E20845",
"7. c #984944",
"8. c #9A5549",
"9. c #975654",
"0. c #88534D",
"q. c #A64946",
"w. c #A85748",
"e. c #B65948",
"r. c #A95954",
"t. c #B65B57",
"y. c #B24842",
"u. c #996757",
"i. c #906356",
"p. c #B96748",
"a. c #A7645A",
"s. c #B86858",
"d. c #AE6D55",
"f. c #90536A",
"g. c #AB5264",
"h. c #926A6D",
"j. c #A46B66",
"k. c #B86B62",
"l. c #AD7769",
"z. c #B77567",
"x. c #B77A75",
"c. c #A87578",
"v. c #CA544D",
"b. c #C76848",
"n. c #C66959",
"m. c #CF7450",
"M. c #C87969",
"N. c #D87B68",
"B. c #CB7E74",
"V. c #CA6C6A",
"C. c #E97672",
"Z. c #B88778",
"A. c #AE8372",
"S. c #C9856B",
"D. c #D8856D",
"F. c #C88476",
"G. c #D88576",
"H. c #CF947B",
"J. c #E38D76",
"K. c #F98B76",
"L. c #FD937A",
"P. c #F89579",
"I. c #EC8E71",
"U. c #F8AA74",
"Y. c #E18A55",
"T. c #0A3D84",
"R. c #08518D",
"E. c #2E5B8B",
"W. c #08679B",
"Q. c #156A9B",
"!. c #2F6795",
"~. c #1B69A6",
"^. c #0674AC",
"/. c #0976B3",
"(. c #1679B9",
"). c #136CAD",
"_. c #2479B7",
"`. c #2C73AC",
"'. c #085FA4",
"]. c #595F8C",
"[. c #4E6995",
"{. c #4F77AC",
"}. c #676D9D",
"|. c #177DC2",
" X c #217EC1",
".X c #8F7488",
"XX c #AC7889",
"oX c #1B84BB",
"OX c #3886B9",
"+X c #2882B5",
"@X c #478ABB",
"#X c #7D888A",
"$X c #1C85C8",
"%X c #2786C2",
"&X c #368EC9",
"*X c #4C92CB",
"=X c #668BC2",
"-X c #948992",
";X c #BB8A84",
":X c #B49294",
">X c #A899A5",
",X c #9EA3A6",
"<X c #AAA8A9",
"1X c #B5B5BB",
"2X c #B3AAB2",
"3X c #BFA99B",
"4X c #C98A84",
"5X c #D69688",
"6X c #C89996",
"7X c #D79994",
"8X c #CE9489",
"9X c #E49888",
"0X c #FB9B84",
"qX c #F89784",
"wX c #FF9994",
"eX c #E99589",
"rX c #CCA19A",
"tX c #D9A297",
"yX c #D9A389",
"uX c #E6A389",
"iX c #F8A68B",
"pX c #E9A597",
"aX c #FBAA97",
"sX c #FDB499",
"dX c #F0B38F",
"fX c #C7A9A7",
"gX c #D5B7B9",
"hX c #D1ABAD",
"jX c #E8A7A1",
"kX c #F9ADA5",
"lX c #F9B5A7",
"zX c #F1B7B1",
"xX c #C29EA0",
"cX c #FDC1B5",
"vX c #BDB9C8",
"bX c #C5BBC8",
"nX c #D0BAC6",
"mX c #CBC8D5",
"MX c #D7CBD6",
"NX c #D9D3D8",
"BX c #CAC8CE",
"VX c #E4CAC8",
"CX c #E7D6DA",
"ZX c #EFCFD2",
"AX c #ECE5D9",
"SX c #DADBE7",
"DX c #E4DCE9",
"FX c #FADDE2",
"GX c #DDE6E9",
"HX c #E6E6EA",
"JX c #F8E5EA",
"KX c #F7EBF3",
"LX c #FDF5F9",
"PX c #EEEFEF",
/* pixels */
"bXmXSXmXGX#X$ $ X X S t o $ $ X X X X X X X X X X X X X o X o X X X     X X X X . > 8.+.-.Y.U.dXA.3X",
"mX1XSXSXGXx $ X X   2 & X X $ X $ X X X X X X X X X X X X X o     X   X X X X   . 6 o.&.K %.Y.U.H.A.",
"mX#X2XSXmX& X % O   O   X X X o X X X X   X X X X X X X X X X X X   . o X X $   # 0 d.$.*.$.*.D.sXY.",
",XZ Z SXmX1 o X X O X   X X X $ X   X X o X   X X X   X     X   X   o o o $ X   > 0.+.$.%.;.b.;.U.U.",
"PXD   D 1X1 X % X X X X X X o o o X o   o   X     X   X X   X   O X     . o X   O . - +.m.-.:.>.>.U.",
"HX<X. o 2 Z % X X   O     X . o   o X X o X   X     X O   X   X O         O   O # > u.p.;.-.-.:.-.Y.",
"NXBXZ . X X X X X X X X X X X X X X X X   X   X X X X     X     X X     o . . > A k.p.;.>.-.-.-.-.-.",
"NXBX2X2 $ X X X X X   X O   X X X X   X   X X   X     X O X     X   X         , 8.d.b.*.>.-.>.-.-.-.",
"NX1X3XD 2 $ $ X X   $   X X X   X X X     X   X   X     X     X X   .       O   # 0 p.m.;.-.>.-.@.@.",
"GXBX2   X X $ O X $   $ X X X X X X X X   X $       X     X X             O   O . @ - $.m.;.b.&.@.$.",
"1X2   % # X     % . o X X X $               O   X                                 . + @ o.p.@.p.+.@.",
"D ,X-XZ $       . +         O & o     #   O               X                     X O   + = o.$.$.$.@.",
"GXPX#X  .   O   t @ +   O X   1 > . . # >   #                                 . . . @ = = - o.8.*.@.",
"GXGX1   #     O XXh.+ . .   o . t . + . Z , . . .                               + A u.u.o.o.+.w.$.@.",
"PXBX&       O   A.FXf.# .   O   t y + @ t -X> . .                 X             . : A d.d.$.$.v.%.&.",
",X<X.         # 6XcXzXa @ .   . * 0.: @ * fX;X: + .               X               . + * w K L b.%.*.",
"t Z O O       + 7XlXlXz.0 + o X + y o.0 @ A tX8X0 .     .     X X X .               + @ = - ) v.v.;.",
"mX2 # 2 X   % = 7XcXd.p 0.y + # + y o.o.6 - H.5X7X0 . O y +   X O   > ,         O   . * 4 2.` ` _ _ ",
"#XO s >   . : y 7XpXZ.+.p 7.7 @ + y s p 9.o.$.iXsXzX: + u.6 .   . + ;Xc.# . . .     = r 2.5.6.......",
"Z , t = .   , A 8XM.d.r.! 7.8.7 + > o.! O.pXS.uXaXkXrX* l.Z.+ @ . i.a.a , . . .   . ; 9 Q 5.X.6.X.| ",
"e e 0.# . . > h.tXH.+.G.q.^ e.q.* @ 7.^ a.5XaX9XlXc.:Xi.9.zX0 > @ Z.o.9.t     . + ; r H 9 P E {  .X.",
"N f.A + + . @ :X8XcX$.O.G.w.y.y.u - p e.G.pXkXlX;Xi.S f.0.lXZ.6 - A.p a.t O   . + - ` <.<.Q Y E  .X.",
"M f.B + y + + :X7X5XlXt.q.n.#.#.8.6 @.J.aXaXzXZ.3XCXCXc.i.cXJ.+.6 H.q u., O O   . = 4 W 5.4.5.E ] ] ",
"V f.; : A @ @ A.tXj.7XlXr.t.eXn.S.u.iXaXlXzX;XgXKXKXLXCXZ.jXdXd.0 uXo.l.&     # 2 4 5 Y 4.4.[ 4.[ ' ",
"XXXX; A 0.= @ A 3Xh.h.:XjXzXG.9XuXdXsXlXpXa i.LXKXKXKXKXZXjX5Xa.w o.a.u..   O   .X1.W J 4.4.| | 4.4.",
"u N 7 0.j.- @ , gX>XMXCXXX4XS.iXS.M.5Xs.u h.nXPXKXJXKXZX7XpXz.8.q ^ jXu +   . + y a 5.[ R } | 6.4.| ",
",.U 4 w d.6 * : 6XLXKXKXCXA B.sXsXM.p 7 s gXLXPXPXJXFXtX4X9XB.#./ t.^ = @ , @ * 7 r W  .R T 4.4.| | ",
"r 8 i 0.j.9 - a f.FXKXJXLXhXp aXsXp.q.G.8XtXZXAXAXVXtX9XV.aXN.n.^ q / 8 * a u - h.f.<. .] R { }  .| ",
"3.XXXXg.7.5 8 1.XXx.ZXJXFXhXO.D.qXJ.iXsXsXaXH.Z.rX4XV.G.aXG.iX0XK O.q.^ q 7 t.5 0.g.Q 4. .{ ] [ } | ",
".Xf..XS B e U ,.V.jX7XrXj.7.w.n.sXaXiXiXaXsXaXlXpX6XB.aXpXw.m.P.q O.#.~ i / e./ f.g.E 4.} } ] } } | ",
"U N l ].].x V A g.V.9XlXV.O.#.~ J.dXiXsXaXuX7X6XxX3XnX:Xi.u.G.D.9 O.2.) K K ~ O.j.g.E 4.| [ ] T [ } ",
",.N F =X{.`.}.S M a r.aXkXM.w.+.uXyXdXpXpX7XrXVXJXbXSXgXD 0 uX#.K ~ ` ) ) ( ) 2.;Xf.Q [ } } 4.T [ } ",
"N M {.&X`.*X@X{.E.F XX5XpX8X5Xl.Z.8XrX3XgXCXJXCXDX<XCX2XD A 0.q ~ ( ` ( ) #.y.r.4X9.P E ] | } ' ' [ ",
"N V =X X&X*X@X+X&X!.D hXj.rX:XxXrXgXVXNXHXSXSXSXSX<X<X>X>XD a / 2.` ( ( ~ ~ ) t.c.;X2.Q [ [ [ } T T ",
"x ].*X&XQ.m ~.&XOXOXz <X:X8XfXCXKXJXCXNXNXMXbXvX1X1X-XDXnXf./ ) _ ( ( ( L K y.k.Z.x.wXY ..[ }  .T R ",
"x {. X Xj j +X&X&XOXC x fXl.A D .X-X<X1XbXbXmXSXSXNXbXZX:Xa 2.) ` _ _ K #.~ V.B.x.x.zXv.J  .| [ ] Y ",
"< E.&X X'.~.&X Xm j _.C k <X;X:XnXSXDXDXDXDXDXSXNXVXhX4X/ ^ _ _ ( ( ( ( &.) G.9XB.H.eXC.` ' | [ ] Y ",
"m `.`._._.*X X Xm T.%XR.k 3 .X:XgXZXgXhXnXgXhXfXrX6XF.^ ^ ) ( ( &.( _ &.` e.9X9XM.9Xs.aXv.Y { [ ] T ",
"!.T.v h h T.&X$X|. X%X+Xn z < Z A.tX7X5Xd.8.M.pXiXJ.^ / ) #.( @.( _ _ ) ^ N.tX5XF.M.J.iXI.G T ] ] ] ",
"c g v h g g R.|.|.$X^.R.C b k < 7 w.G.J.n.V.wXN.#.~ ! ~ / ~ L L &.( ) ( t.pX5X5XD.J.iXeXqX` R ] ] [ ",
"h g h h g h v |.|.$Xb k n n b k 1 4 7 r q.2.9.r.w p 1.q.#.~ L _ ( #.) #.B.H.5XH.N.0XP.P.iX&.Y { ] ' ",
"h g h g h v v ~.(./.Q.C _.`.n k 1 ; e 7 8 5 8 i a.l.w.q.2.~ ( ~ ^ ^ ) s.Z.u.F.5XG.0XL.P.0Xv.G R ] T ",
"d g g g h h h ).oX^.^.+XoX+X_.b < ; ; 7 7 8 8 8 4 u 7.k.s.k.s.s.e.e.V.S.l.u.F.9XqX0XL.L.L.C.G W T ] ",
"f g d g h h c ).^.oXQ.W.^.(.(.~.C 1 e 8 5 8 r 8 8 5 5 O.^ w.q.7.! 8.9XS.l.H.F.N.0XP.L.L.0XK.I Y T ] ",
"f f f f h h m ).oX).W.~.W.W.(.(.`.B N H 9 8 8 8 8 8 5 H ) #.t.p.n.B.iXS.Z.uXJ.eX0XL.K.K.K.qXQ Y E T ",
"f f h d g g R.(.'.b c Q.~.R.W.`.!.V ,.E Q U Q U U U I H n.wX0XiXqX0XP.J.P.U.P.L.0XP.K.L.qXC._ I E T ",
"1 < h h g c '.(.).c n ).^.oXW.Q.B r W E Y Y E { W E ' J ` qXqX0XL.L.L.P.L.P.K.K.N.I.L.K.qXN.2.U Y E ",
"1 1 f h j T.(./.).(.(.(.^.^.!.x e P E ' Y J T ' R R ' ..G 2.wXqXL.K.L.K.K.K.K.L.b.I.K.n.t.k.q.I Q E ",
"f.V v T.T.`. X)./././././.~.x M r Y T ..Y G Y Y T E ' T R G v.qXL.L.K.K.K.K.K.K.D.b.P.n.p 7.t.I E E ",
".X.X].@X=X*X_.'./.^.^././.Q.l r P P E E Y G Y Y Y E ] ] R J H ! I.K.I.K.K.Y.I.K.K.=.D.n.9.9.g.I E E "
};
