/* XPM */
static char *MjBkMWJkMWEwZjFhZjVkMTM2YjhiNGE0NzU1YzE3NjcrJTI4MiUyOS4_[] = {
/* columns rows colors chars-per-pixel */
"50 50 256 2 ",
"   c #090B05",
".  c #1D0B02",
"X  c #1C0C0B",
"o  c #160906",
"O  c #0B170A",
"+  c #1C1403",
"@  c #1C130C",
"#  c #1C1B0C",
"$  c #141808",
"%  c #1C0E12",
"&  c #160B14",
"*  c #0B1518",
"=  c #141413",
"-  c #1C1513",
";  c #141B15",
":  c #1C1B14",
">  c #14151C",
",  c #1C141A",
"<  c #141B1B",
"1  c #1C1B1B",
"2  c #230C01",
"3  c #2C0C02",
"4  c #240D0B",
"5  c #270703",
"6  c #330201",
"7  c #330C00",
"8  c #3C0D01",
"9  c #3B0200",
"0  c #241303",
"q  c #2B1302",
"w  c #2B1904",
"e  c #24140C",
"r  c #2B130B",
"t  c #231B0D",
"y  c #2B1B0C",
"u  c #251A04",
"i  c #341301",
"p  c #3C1301",
"a  c #321B01",
"s  c #3B1A02",
"d  c #34140D",
"f  c #331C0B",
"g  c #3B1B0B",
"h  c #3A150B",
"j  c #280C16",
"k  c #231414",
"l  c #2C1513",
"z  c #231B14",
"x  c #2B1B14",
"c  c #23151B",
"v  c #2B141D",
"b  c #231C1C",
"n  c #2B1C1B",
"m  c #341B13",
"M  c #3A1C14",
"N  c #341C1C",
"B  c #391817",
"V  c #370F1A",
"C  c #192509",
"Z  c #07211A",
"A  c #1A2419",
"S  c #0F210A",
"D  c #2A2305",
"F  c #382508",
"G  c #25231C",
"H  c #2C221C",
"J  c #272516",
"K  c #342214",
"L  c #3B2313",
"P  c #34231C",
"I  c #3A241C",
"U  c #3A2A1A",
"Y  c #2E341E",
"T  c #0C1A26",
"R  c #151523",
"E  c #1C1522",
"W  c #141C22",
"Q  c #1B1B22",
"!  c #18192C",
"~  c #131D32",
"^  c #0F1932",
"/  c #251423",
"(  c #231B23",
")  c #281A27",
"_  c #351B25",
"`  c #271225",
"'  c #1C2225",
"]  c #162328",
"[  c #172835",
"{  c #0C2432",
"}  c #252422",
"|  c #2C2323",
" . c #2D2A24",
".. c #29262C",
"X. c #342423",
"o. c #3C2424",
"O. c #332A23",
"+. c #3B2A24",
"@. c #3C2C2B",
"#. c #35272A",
"$. c #393229",
"%. c #3C3237",
"&. c #2E2A30",
"*. c #440A01",
"=. c #530D00",
"-. c #441401",
";. c #4B1401",
":. c #441B02",
">. c #4B1C01",
",. c #441C0C",
"<. c #48180A",
"1. c #541400",
"2. c #531B01",
"3. c #5B1B00",
"4. c #581A08",
"5. c #421C14",
"6. c #491918",
"7. c #531717",
"8. c #641D01",
"9. c #691902",
"0. c #690F08",
"q. c #4B2202",
"w. c #44230B",
"e. c #4B240C",
"r. c #462907",
"t. c #542202",
"y. c #5B2303",
"u. c #5B2B0D",
"i. c #57270A",
"p. c #432313",
"a. c #4B2213",
"s. c #4D2A15",
"d. c #442C1C",
"f. c #4D2C1A",
"g. c #452718",
"h. c #562917",
"j. c #4A3417",
"k. c #573417",
"l. c #5A3709",
"z. c #6A2301",
"x. c #632C01",
"c. c #63250B",
"v. c #682907",
"b. c #742C01",
"n. c #762A05",
"m. c #6B330D",
"M. c #65350C",
"N. c #773507",
"B. c #652B16",
"V. c #732C12",
"C. c #742817",
"Z. c #673519",
"A. c #773718",
"S. c #461C21",
"D. c #422B24",
"F. c #482927",
"G. c #572C26",
"H. c #483428",
"J. c #593726",
"K. c #463536",
"L. c #553534",
"P. c #492A36",
"I. c #662926",
"U. c #653926",
"Y. c #773C26",
"T. c #673835",
"R. c #763E37",
"E. c #612F30",
"W. c #3D493D",
"Q. c #794507",
"!. c #79471A",
"~. c #6D471C",
"^. c #5B4238",
"/. c #51432D",
"(. c #67442A",
"). c #7C4524",
"_. c #774629",
"`. c #754635",
"'. c #765237",
"]. c #714A31",
"[. c #794E43",
"{. c #584340",
"}. c #843809",
"|. c #953A02",
" X c #853C17",
".X c #902800",
"XX c #873E26",
"oX c #883733",
"OX c #88461C",
"+X c #984A1B",
"@X c #955717",
"#X c #8F4C0B",
"$X c #A55A1C",
"%X c #A74C0B",
"&X c #AD6916",
"*X c #884927",
"=X c #914B28",
"-X c #88542A",
";X c #995428",
":X c #864A36",
">X c #954B35",
",X c #8B5739",
"<X c #985736",
"1X c #A75928",
"2X c #A65B37",
"3X c #AE5630",
"4X c #986438",
"5X c #8D6238",
"6X c #AA642A",
"7X c #B76829",
"8X c #A86639",
"9X c #B86837",
"0X c #B3743A",
"qX c #AB7338",
"wX c #C86727",
"eX c #C7783C",
"rX c #CF732E",
"tX c #E57D33",
"yX c #995A47",
"uX c #8A4C49",
"iX c #A45A4E",
"pX c #996948",
"aX c #97734F",
"sX c #A86748",
"dX c #B96A48",
"fX c #A8764A",
"gX c #B77545",
"hX c #B87958",
"jX c #A96C56",
"kX c #B47166",
"lX c #C67745",
"zX c #CC744E",
"xX c #E07143",
"cX c #C68538",
"vX c #DA8431",
"bX c #F19336",
"nX c #EF962D",
"mX c #B38454",
"MX c #B38567",
"NX c #C7864A",
"BX c #D68648",
"VX c #C78555",
"CX c #D48353",
"ZX c #D9924C",
"AX c #E69759",
"SX c #EC8D4A",
"DX c #F8AC53",
"FX c #D78767",
"GX c #D19267",
"HX c #E89865",
"JX c #F29366",
"KX c #FAB367",
"LX c #F7AB6E",
"PX c #DFA168",
"IX c #FFC771",
"UX c #F4B580",
/* pixels */
"@ : * T [ ! O J w q.}.2X-.L - < * Z C i 7.kX7.l @ # e + $ ; } _ <.b.wX%X0.0.%X+X~.(.mXd._ & b A G z ",
"t H W R ! ! ; J w :.b.<Xu.J.H.b ] A U 7 XX,X<.m G = @ r t t k 4 e.z.SXSXdX1X+Xy.a w k.w v c b G $.O.",
"r e c / ` E } $.L e.h.<XZ.-.a.h.5.*.3.z.cX@Xr.F ; > j B 5.>.M.).MXGXLX;XY.6.p q t z L d v c e t G G ",
"m r l v ( b #.@.5 f.4.<XhXXXc.Y.R.Y. XNXDXqXl.j.$.%.%.F.h.u.!.-Xu.fXMX2.5.l t  .; G F.B ) & l y : < ",
"v _ I x r P #.c K.F.:XjX>X2XFXV.9 *.z.VXqX!.M.(.J.L.H.F.G.J.H.r.q l.fXu.l j |   : o.E.6.%.& n x | ..",
"M f g p.L M N #.K.{.H.w.8 2.A.c.-.i >.4Xm.8 ;.:.h g f w m +. .J F r.'.r.4 & } b N G.:X7.K.1 P d d l ",
"N.A.N.M.l.F p.L.D.| O O x M N g.e.>.;.).q.q d l 4 v / % o @ ; # . j.'.h._ 4   y 6 V.1X8.J.$.s.h.A.XX",
"7XAXNX~.j./.f.5.3 z Z O = z r H.l.!.V.yXj.K 4 v ` E 1 Q v v @ $ y f.`.,.k b # 0 ;.+XzX}.M.Z.c.A.A. X",
"0.rX;Xa O $ . 3 i q $ A : 0 8 v.VXVXFXpXm O.b - % = ; ; z j k 4 _ 6.[.6.) * O u y.9XLXZXgX8X;X9.-.3 ",
"0.wX!.0 G ; O.y r d t # w p m.;X2Xm.>XyXD.P e x t : ; O % j j l 7 T.uX*.z ; A y x.9X@Xx.N.OX XOXi.r.",
"SXxXwX4.y } ( c N l f F 4.XX=XA.9 6 -.h.(.^.i g 5 t 1 W R ! / v -.A.>X;.d.J % _ :X*Xp a 3 i i.).#X&X",
"SX%X3X<X>.I , ( v F.:.v.dX9Xz.*.-.u.p 3 g.U.a.9 g K  .......| m 2.*XVXM.p H.F.E.iX4.2 J t t t F cXDX",
"<.*.1.sX*X*.D.@.D.M V.zXJXxX2X*XM.q.i e.<.7.R.<.h w # 1 }  .D.h.N.;XLXVXz.3.E.E.oX7.D.= W ] O t 5X7X",
"c r 3 Z.dXV.>.r.i i.2X3Xb.x.-XsX4X-XM.u.=.0.>XY.-.7 r n  .L a.v. XsX!.-XVX X7.iX>X4.K.Q W > * k Z.m.",
"b o y i 8XeX}.b.#XqXA.6 p.L 5 ,.:XzX8XN.|.%XrXvX;XY.G.L.H.i.N.%X>X4.. 3 N.8XjX*X8XN.s.+.D.F.6.6 k.u.",
"z D y i z.zXbXrX7X!.h.K = = H g *.>XAXcXtXvX&X$X8XU.S.6.g.k.1XHXXX<.w.2 z.;X*.6 t.mX!.2.i.B.I.C.Y.y.",
"q.s :.:.*.n.KXwXx.F r k > E k 4 7.C.BXDX1X8.:.q 2 4 l l - + s.-XhXh.g.i I.B.8 i 4 (.AXwXeXCXzXzX9X}.",
"-X-X_._.A.6XKX|.t.m z 1 * * - r S.c.DX&X=.-.x b b , k : < ; y g 4.'.'.G.uX7.5 n z w.bXtXb.z.}.n.=X=X",
"M.).5X4XfXNXDXb.q.t @ < ] < A k J.-XcXQ.,.l P.` l k @ C Q Q 4 2 i i k.pX<X6 r : O s wX7X7 j.f.k.,.f.",
"r.F 3 2 s x.7X@Xj.z O ; < * b K G.sX6Xy.g.X.#.E 4 k C # R E l w X w q ~.,X-.y ; , <.3X=Xu W.Y Y %.@.",
"E R E ( l p m.A.d.b c c - X r p.i.=X0Xx.i @.` ` c H C S > ! ( n v e 0 s.(.f.D.m F.4.9X3Xd R * * , b ",
"^ ~ ~ R b g 4.h.K.n , ( ) P B i i.t.-X,Xs.l ) ` , C S S ! ! b l j l + y (.U.a.h.f.I.3XC.n R < G = = ",
"W > Q @ y s.Z.k.K.( * Q #.%.#.r M 7 s '.].4 ` & > = S C ' &.M h B X n z 3 Z.>XC.I.E.E.5 , b 2 q P J ",
"#.b b t s u.u.(.x Q Q Q : G  . .e m K 0 ^.G.` ` > ; C J ..X.<.8.i.w.0 K g -.+XFXT._ ` %., X g 3 + @ ",
"O.+.y a -.v.pXw.H 1 * < = @ 1 } ( Q = # ^.G._ j b   A C P f.}.xXBXmX!.F U F =.iXL.#.Z A   t 0 r e k ",
"x m U p.t.pX(.i x > R Q k e - E E = } y '.h.6._ > A $ $ K Z.CXAX#XQ.qX!.r.i =.>X].+ J O Y o e X.v N ",
"X.F.n h Y.jX-.d ) c R E l r k , E +.p y.0Xx.T.` R { O t i.,XGX(.z + !.PX-XN..XxXlX3.r.D Y /.K._ 5.<.",
"^.^.F.J.sXN.-.d.@.( R , 4 3 k / X.5.1.eXIXb.7.%.~ * ; w 3.jX_.o R & t.PX-XOX1XxXFXOX:.F q H N F.`.(.",
"aX,XaXGXAXx.>.F $.G A ; 0 0 < 1 M c.7XDXKX&Xp P...Q X.5.1.fXJ.K P.5._.y.3 3 6 9 7.hXAX&X-X'.jXkXhXmX",
"s p q.;XZX%X:.p.O.G ] < u u < b B.sX0X%XQ.@Xi.M l N _ G.3.4XZ.s.7.I.I.a u J _ j V 4.0XIXqXA.8.4.:.s ",
"a p 3 >.;XgXk.U O.} E 1 a q n o.iX;X:.D . s u.).i.t.7.7.8.6X1Xz.V.B.o Y D S z & c 3 cXKXp q p g w y ",
"e 0 L s 8 sXMXp.U H Q , 3 i I G.iX1.o C + a y.gXgXOX:X9.z.ZXKX9XV.8 n $ S $ x b _ U mXQ.i U 0 w t : ",
"x X k P p t.fX,Xi p.b E | N 7 h.R.3 o A + s y.eXlX9XdXzXCXLX7Xv.w } X 0 + $ t 4 v +.aXs r.F + z z b ",
"% b > b K 3 !.gXt.r.X.R > X.:.yX(.f : : m 7 =X8X8.1.9.9.n.2XN.9 b ..l d e . N X.O.^.H.f s 5 J ; 1 : ",
"& Q O A #.r 1.zXOX1.L O.#.D.3.qXl.w.m x r (.`.*.p 3 m d a.U._.5.b  .r r e X k _ L.L.= x B 4 ' W : : ",
"Q * S Y O.F.7.oXeXz.q.j.F.u.N.rXN.*.>.J.G.[.a.7 q e b b K F.R.a.N H x m +.#.@.K.L.N - 1 x o.* W , k ",
"' O D K y F.7.C.AX$XN.Z.4.1.%XvX&Xb.}.v.B.,.3 m y @ 1 1 H g._.B.U G J J &.} x d.J.2 | X x U O = 1 , ",
": : J K d 6.G.>XzXlXsX<XsX7XnXnXrXeX;Xm.a.m v - k @ = = - m Z.).s.j.F K b b g J.j.q n % H J  .b ( ( ",
"0 y G z g.h.C.=X4.h.J._.6X7XbXDX1X X;.f.: T T T 1 c } ( , P u.8X}.n.8.*.-.g.C.yXm.-.V V X.b %.&.) ) ",
"d 0 H b D.U.Y.;.B X x f >.1.%XbXOX;.J.K * { { { = c ..) , r q.gXLXSX7X=X:XyXdXPXOX;.6.v b , ) &.b k ",
"l o.m D.'.(.3 2 - Q T * z p 9.wXY.g.B X [ [ { T b l 4 ) c I q.0XLX$XQ.i.h.h.l.OXhX-.p.+.P : = G G = ",
"F.6.U.-X].,.2 b : < ^ T R 7 z.2XZ.M r k ..W W > . 2 k O.O.L >.zX8Xt.w 0 2 d q r.<X-Xw.d.K U @.t D D ",
"F.*.8XHX=X-.H.K t O A ..) B z.#XZ.-.i p.+.k x 0 q u y u K s.v.jXZ.e = < R ( 4 i u.>XA.Y.Z.k.U.h.h.u.",
"R.yXeXBX9XA.e.d.F F D m j 7.=XGX-Xp p I +.L l r q 0 t K L 7.>XsXp.> ~ ~ ! ( , k i u.yX XB.h.>.B. X6X",
"zX3Xm.y.;X8X XV.:.F 7 >.9.A.V.<XpXi M l _ @.e x H : } /.g.8 sX*Xf = W W * A > , H a pXv.5 P . 7 N.nX",
" X1.q.r.p y.:X>X-X).x.Z.V.A.-.w.,X>.D., ( #.k G G } 1 I -.C.FXV.s z ' W O $ W 1 G 0 4X<X. v - a &XvX",
"g a 0 q D.o.B a.*X2XCXGX_.f.x f A.Z.L.O...} I P k N d <.9.wXJX|.q.K | ( u . < > 4 7 qXgX<.5.X.H.].x.",
"$ # 0 e c E , N 8 1.1XdX-.l G e >.Y.U.H.U w s.w.g.f.`.yX3X9XrX%Xy.w.@.@.L f } b m ;.NX@X*.F.$.@.P 0 ",
": : - - b 1 , k r i OX;Xi X.- - . g.*X<X=X+X3X9XgXsX,XY.h.a.A.>XN.u.N P D.$.O.+.7 A.ZXN.,.o.N z b z ",
"- : - - 1 b k b 1 r !.-Xq #., , ( q *.n.wXSXwX|.9.0.1.-.3 3 <.c.;X*XG.X.@.@.J K ,.<XPX#X,.N b z b : "
};
