/* XPM */
static char *MzYwX0ZfNTIxMzI5NDk4X2NuNlc2N3RLM0NZMmJvTEczYWM1eXMwR3U0VmhuRVozKyUyODIlMjku[] = {
/* columns rows colors chars-per-pixel */
"50 50 129 2 ",
"   c #66CCCC",
".  c #6ACDCE",
"X  c #66D0CE",
"o  c #69D0CF",
"O  c #6BCFD1",
"+  c #70CED0",
"@  c #6DD3D3",
"#  c #6DD9D6",
"$  c #6FD7D8",
"%  c #6EDAD8",
"&  c #72D5D5",
"*  c #71D8D7",
"=  c #72D6D8",
"-  c #78D7D9",
";  c #75DBDB",
":  c #7ADDDE",
">  c #76E1DF",
",  c #79E0DF",
"<  c #77DFE0",
"1  c #7ADEE1",
"2  c #76E3E0",
"3  c #7CE3E3",
"4  c #7DE9E6",
"5  c #7FE7E8",
"6  c #7EEBE9",
"7  c #80DFE1",
"8  c #81E0E2",
"9  c #82E0E2",
"0  c #82E1E3",
"q  c #83E1E3",
"w  c #80E2E3",
"e  c #81E3E4",
"r  c #83E2E4",
"t  c #84E3E5",
"y  c #81E5E5",
"u  c #82E4E5",
"i  c #83E5E6",
"p  c #80E7E6",
"a  c #82E6E6",
"s  c #83E7E7",
"d  c #85E4E6",
"f  c #86E4E6",
"g  c #86E5E7",
"h  c #87E5E7",
"j  c #84E6E7",
"k  c #82E5E6",
"l  c #80E8E7",
"z  c #81E8E7",
"x  c #81E8E7",
"c  c #85E7E8",
"v  c #87E6E8",
"b  c #82E6E8",
"n  c #88E6E8",
"m  c #88E7E9",
"M  c #89E7E9",
"N  c #88E7EA",
"B  c #81E9E8",
"V  c #82E9E8",
"C  c #80EAE8",
"Z  c #81EBE9",
"A  c #82EAE9",
"S  c #81E9EA",
"D  c #84E8E8",
"F  c #86E8E9",
"G  c #87E9EA",
"H  c #86EAEA",
"J  c #87EBEB",
"K  c #80EDEA",
"L  c #83EDEB",
"P  c #84ECEB",
"I  c #81EFEC",
"U  c #82EFEC",
"Y  c #84EEEC",
"T  c #85EFED",
"R  c #86EEED",
"E  c #87EEED",
"W  c #85EDEE",
"Q  c #87EFEE",
"!  c #84EAEB",
"~  c #89E8EA",
"^  c #8AE8EA",
"/  c #8AE9EB",
"(  c #88EAEB",
")  c #89EBEC",
"_  c #8BEAEC",
"`  c #8CEAEC",
"'  c #8CEBED",
"]  c #8DEBED",
"[  c #88ECEC",
"{  c #8AECED",
"}  c #8BEDEE",
"|  c #8DECEE",
" . c #8EECEE",
".. c #8EEDEF",
"X. c #8FEDEF",
"o. c #8CEEEF",
"O. c #89EDED",
"+. c #82F0ED",
"@. c #83F0ED",
"#. c #84F1EE",
"$. c #86F0EE",
"%. c #87F1EF",
"&. c #89F0EF",
"*. c #87EFF0",
"=. c #8DEFF0",
"-. c #8FEEF0",
";. c #89EEF0",
":. c #90EFF1",
">. c #91EFF1",
",. c #86F0F0",
"<. c #87F4F1",
"1. c #8CF0F0",
"2. c #8EF0F1",
"3. c #8CF3F2",
"4. c #88F5F2",
"5. c #89F6F3",
"6. c #8CF1F3",
"7. c #91F0F2",
"8. c #92F0F2",
"9. c #92F1F3",
"0. c #93F1F3",
"q. c #93F2F4",
"w. c #94F3F5",
"e. c #95F3F5",
"r. c #96F5F7",
"t. c #90F4F6",
"y. c #97F6F8",
"u. c #98F6F8",
"i. c #99F7F9",
/* pixels */
":.-.w.j ~ u.| w.e.q e.` 0.i.9 e.X.>.u.M M w.` e.e.7 e.` 8.u.q e.X.e.w.M ~ u.| e.8.t e.` >.u.7 e.&.t.",
": 3 H * * w : H , o : : t M . : : w [ * - > > [ : o : : w [ . : > 3 ~ * - , : [ , + : : t [ o - : , ",
"4 2 2 % > @.> 4 * % H 4 , , @ 4 4 > 2 % > Z > D * * H 4 > 3 o z 4 2 2 % > 6 > Z ; * H 4 , 3 + p p j ",
"4 > > # 2 $.> > * > $., > , * $.4 > > % 3 %.> > ; > $.2 : , * $.4 > > * 2 #.> > > > %.2 > > * $., , ",
"& . & . & -   - & + - . & - + - o o * + & * . & & + - . & - + - o . * o & -   - & + & . + - + * - & ",
"j 3 ~ z ~ &.7 M t M M t M X.D M ` t [ z ~ ~ , ` M M M t M X.M M M w ` t j ~ 7 ` j M ~ t M X.t M w , ",
"> * > > Z Z @ > > 4 p , - , , Z , * > > z 4 * 2 ; w 4 ; : > > z 2 # > > w z # > ; 4 z ; : , , p , & ",
"% # 4 4 4 > @ 4 Z 4 > o > Z Z 4 # % 6 6 4 > @ 2 6 4 > @ > z z 4 # # @.6 4 > # 2 Z Z > # ; p Z z - + ",
"# ; 6 4 > > > @.4 > 2 > 3 %.> > > > $.2 > > % @.4 > 3 * 4 $.> > > > @.2 > > # $.6 ; 2 ; 2 W < < , : ",
"#   X X @ > X o o X * o o *   @ * o # o # > o * o X * o @ *   # ; o @ X # > o # o   * O O =   & & o ",
"H D 4.3 w ` t X.` 7 D t X.>.7 M D y ` , , ~ 7 ` [ q M t  .>.7 t j j [ 7 , [ q ` { 1 c M ] :.7 7 M h ",
": y | - - w : ` q - 7 7 M M - , , w &.: - w 7 ` t * 7 7 M M - 7 : j >.> = j 7 X.w - 7 7 M M 1 1 , , ",
"4 > 2 # > Z > 4 * * z 4 > ; @ z z 2 4 % > #.> 4 * * Z 3 > , o z 4 > 2 % > $.2 2 * * z 4 1 < @ 5 j j ",
"Z > > # 2 4., 3 > > $.w 3 3 ; H Z 2 > % 4 %.> > > , $.p p , ; $.Z > > % 2 3.> > 2 > $.B 1 1 < S , , ",
"o   @   o &   o * . &   & * . & & o * o & *   & &   &   & *   + & o * o & =   & & . & . + - O = & o ",
"D w ` j [ [ : j M j ` w 7 ` q ` w , ~ z D M : M D D &.7 t ` w &.w w ~ y H [ : ~ c y -.y 5 N 3 ;.j , ",
"9 * a , a 3.& y - a E > , w , D 3 # , > > %.* 4 * z $., ; 4 , z 5 $ 5 < < 5 $ 5 $ 5 5 5 1 5 < 5 2 - ",
"* * Z y , , @ p Z j , & > L p D * # H 3 3 z o 4 Z 4 > # ; Z z 4 $ $ 5 5 5 5 $ 5 6 5 < $ < 5 5 5 1 & ",
"> * &., , p * D p , > * y E , , > ; $.> > p * H z 3 , * w $.> , < = N 1 5 5 $ 5 5 < < < 5 ;.5 1 1 = ",
"+ X * X * * X * X @ & & * * o o * o ;   @ * o > o   & @ - *   # = O <   O $ O < O O $ @ = = O O ; O ",
"D , E > D p y L > , D y y , , L t , [ : M D w H w , j j D w : [ b 1 N 1 N N 5 ;.5 5 N b b 5 1 N t : ",
"p , E * p , p &., , p p p y > D t w ` * t , t ` : : t D D w : t t t ;.- 5 1 b N < < b b b t 1 b 1 = ",
", , y @ y > y , * * , p y , * , t , t + w : t M & - t w t : & , b 1 5 O 1 1 5 5 = = b b b 1 + 1 4 : ",
"Z , , @ &.D Z , , , L p , > > w.p , , & &.[ D * : w $.w : * , >.b 1 1 = -.N 5 < 1 1 N b 1 = 1 -.3 : ",
"& o o . * *   & * + & o & * o * o o * & * o   ; # o # o & ; o * O $ = $ $ O O $ @ $ $ O @ = O @ @ X ",
", 9 a w a a > M w p D , w w y &., > 3 4 z p > z , D H > 3 > 3 H 1 < 5 5 5 5 < 5 1 6 6 2 3 3 5 W : * ",
", , a 9 M a - 9 w j D - y , H H , > 4 4 Z 4 > > 4 Z Z > p > $.Z < < 5 5 5 5 < 5 5 6 5 ; 6 < W W : * ",
"+ , a , , , * w w w , o D , [ , @ , H > , ; * w , 3 , o Z > H > O < 5 5 < < $ 5 5 1 < @ *.< B 1 * & ",
"& y 1.y w > * >.j w p & &.p ` , ; p $.p , , , $.p , 3 * $.4 H , - 5 N 5 3 1 1 ;.5 1 1 ; 6.3 W 3 - & ",
"  + * . & & . > o o ;   - & @ & o & & o o * & - + o -   - & o & O = = O @ = O - @ O < O - @ O & + . ",
"y y 9 > a [ 9 a w - ` , D H * [ w D M : t M t H t - ` 7 t D - M t b N 1 3 N b N 1 1 N 1 j c - M M j ",
", H E w , 7 , E H * D w D &.& M , t ~ 7 , w 7 [ ` * M , M >.& D 1 N N 3 1 3 1 N N 1 N 1 j 8.- D w , ",
", L p * < 5 5 5 < $ 5 5 5 1 O 1 , H y & * j D j * + w j a 7 o 9 w H w & < 5 5 5 1 O b b b 1 + 1 B 4 ",
"M , : * 1 W 1 1 < < ;.5 1 < = ;.p , , * y &., , , , E y , , * [ p p > * 1 *.1 1 1 1 ;.b 1 1 = ;.2 > ",
"= & @ @ = < O < = $ < @ $ = O 1 o & * * * , o * * * , + & - + , @ @ = @ ; < @ = $ = 1 O O 1 O 1 & @ ",
"1 ; 3 > 1 1 = 1 1 1 3 = < W < 1 ; > p , , , * p 7 , a * , H , y < : b 3 1 1 = 5 1 1 b - 1 N 1 5 2 : ",
"! < 1 5 ;.;.< 1 5 5 ;.1 < ;.5 ;.p > w y H $.> D w D >., , H a [ S < 5 1 ;.;.< 1 5 N -.1 1 N 5 ;.3 - ",
"; $ 5 1 1 5 $ 1 1 5 5 O = S 1 5 > @ , , , p o , , 9 a + * D , a ; $ 5 1 5 1 O 1 1 1 b = 1 b 1 1 - - ",
"= < ;.5 1 1 < W ;.5 1 $ 5 ;.1 5 , ; &.p , p * $.E , y * w 0.y y ; = ;.5 1 1 $ W ;.1 1 = 1 t.b 1 ; ; ",
"O X 1 $ $ 1   < O O < O $ 1 O O - o , o o , o , + & , o & , o & < O < O $ 1   1 = = 1 O 1 1 O = = @ ",
"5 1 1 = 1 5 1 5 1 = 5 < 1 S = 1 > , , - > , > , : & y : 1 H @ 3 1 5 1 < 1 5 < 3 7 = 5 1 1 b O b 1 1 ",
"< ;.;.5 1 5 5 ;.5 < 5 5 b ;.= 5 w $.&.p , Z H &.D : D 3 H 6.- t 1 5 ;.5 1 1 5 *.N 1 b 5 N 6.1 b 5 S ",
"1 1 5 = = 5 1 5 < O 5 1 < 1 O S , , , * , p , p ; & D : : 1 O t 5 5 5 = < S 3 5 $ O b 1 1 1 O 1 1 5 ",
";.5 1 = 5 ;.5 1 < < ;.b 5 1 = ;.H 4 w ; y &.p , , : | j 3 3 & ;.5 1 < = 1 ;.1 1 1 1 6.N 5 1 < ;.1 < ",
"O O = O O 1 O $ = O < O < < O = o # , o o > o ; * & * & 1 1 . - = = 1 $ $ 1 O < - = = O = 1 O 1 1 $ ",
"1 = 5 < 1 5 $ 5 5 5 1 < 1 1 < 5 , * , , w H * , 7 , , - 1 1 1 1 < O 1 = 1 5 @ 1 1 5 7 1 1 1 1 1 1 = ",
"5 = 5 5 b ;.< 5 1 ;.;.1 < 5 5 ;.H * p p $.&.* 3 , H &.w 1 1 5 ;.;.= 5 5 ;.t.< b 1 ;.;.5 1 b b -.b 1 ",
"1 O 5 1 5 5 O 1 1 5 1 = = 1 5 5 , o p , , p o D > H t * < 5 5 1 1 O 5 5 1 1   5 1 5 1 = 1 1 b b < = ",
"= < ;.5 < < $ *.5 < < $ 5 5 < < < $ 5 5 < < $ 5 5 < 1 $ 5 5 < < $ = ;.5 < < $ 5 5 5 < $ 5 5 < 1 < = ",
"$ $ W < < 1 $ 5 5 < < < 5 5 < < < < 5 < < 5 $ 5 < < 5 $ 5 5 < < < < 5 < < < = 5 < 5 < $ 5 5 < < 1 = "
};
